0 cabane_solver
0 Name: cabane_solver.ldr
0 Author: text2legoCAD
0 BFC CERTIFY CC-WITEMPORARY

1 14 40 -12 110 0 0 1 0 1 0 -1 0 0 3008.dat
1 14 80 -12 40 1 0 0 0 1 0 0 0 1 3622.dat
1 14 180 -12 40 1 0 0 0 1 0 0 0 1 3622.dat
1 14 220 -12 110 0 0 1 0 1 0 -1 0 0 3008.dat
1 14 90 -12 70 1 0 0 0 1 0 0 0 1 3001.dat
1 14 170 -12 70 1 0 0 0 1 0 0 0 1 3001.dat
1 14 90 -12 110 1 0 0 0 1 0 0 0 1 3001.dat
1 14 170 -12 110 1 0 0 0 1 0 0 0 1 3001.dat
1 14 90 -12 150 1 0 0 0 1 0 0 0 1 3001.dat
1 14 170 -12 150 1 0 0 0 1 0 0 0 1 3001.dat
1 14 130 -12 180 1 0 0 0 1 0 0 0 1 3008.dat
0 STEP

1 14 100 -36 40 1 0 0 0 1 0 0 0 1 3005.dat
1 14 180 -36 40 1 0 0 0 1 0 0 0 1 3622.dat
1 14 130 -36 180 1 0 0 0 1 0 0 0 1 3008.dat
0 STEP

1 14 40 -36 110 0 0 1 0 1 0 -1 0 0 3008.dat
1 14 220 -36 110 0 0 1 0 1 0 -1 0 0 3008.dat
0 STEP

1 14 70 -28 40 1 0 0 0 1 0 0 0 1 3023.dat
0 STEP

1 14 130 -60 40 1 0 0 0 1 0 0 0 1 3008.dat
1 14 130 -60 180 1 0 0 0 1 0 0 0 1 3008.dat
0 STEP

1 14 40 -60 110 0 0 1 0 1 0 -1 0 0 3008.dat
1 14 220 -60 110 0 0 1 0 1 0 -1 0 0 3008.dat
0 STEP

1 14 130 -84 40 1 0 0 0 1 0 0 0 1 3008.dat
1 14 130 -84 180 1 0 0 0 1 0 0 0 1 3008.dat
0 STEP

1 14 40 -84 110 0 0 1 0 1 0 -1 0 0 3008.dat
1 14 220 -84 110 0 0 1 0 1 0 -1 0 0 3008.dat
0 STEP

1 14 70 -108 50 1 0 0 0 1 0 0 0 1 3037.dat
1 14 50 -108 190 -1 0 0 0 1 0 0 0 -1 3037.dat
0 STEP

1 14 150 -108 50 1 0 0 0 1 0 0 0 1 3037.dat
1 14 70 -108 80 1 0 0 0 1 0 0 0 1 3010.dat
1 14 130 -108 190 -1 0 0 0 1 0 0 0 -1 3037.dat
0 STEP

1 14 210 -108 50 1 0 0 0 1 0 0 0 1 3039.dat
1 14 150 -108 80 1 0 0 0 1 0 0 0 1 3010.dat
1 14 70 -108 100 1 0 0 0 1 0 0 0 1 3010.dat
1 14 210 -108 170 -1 0 0 0 1 0 0 0 -1 3039.dat
0 STEP

1 14 210 -108 80 1 0 0 0 1 0 0 0 1 3004.dat
1 14 150 -108 100 1 0 0 0 1 0 0 0 1 3010.dat
1 14 70 -108 120 1 0 0 0 1 0 0 0 1 3010.dat
0 STEP

1 14 210 -108 100 1 0 0 0 1 0 0 0 1 3004.dat
1 14 150 -108 120 1 0 0 0 1 0 0 0 1 3010.dat
1 14 70 -108 140 1 0 0 0 1 0 0 0 1 3010.dat
0 STEP

1 14 210 -108 120 1 0 0 0 1 0 0 0 1 3004.dat
1 14 150 -108 140 1 0 0 0 1 0 0 0 1 3010.dat
0 STEP

1 14 210 -108 140 1 0 0 0 1 0 0 0 1 3004.dat
0 STEP

1 14 70 -132 90 1 0 0 0 1 0 0 0 1 3037.dat
0 STEP

1 14 150 -132 90 1 0 0 0 1 0 0 0 1 3037.dat
1 14 50 -132 150 -1 0 0 0 1 0 0 0 -1 3037.dat
0 STEP

1 14 210 -132 90 1 0 0 0 1 0 0 0 1 3039.dat
1 14 130 -132 150 -1 0 0 0 1 0 0 0 -1 3037.dat
0 STEP

1 14 210 -132 130 -1 0 0 0 1 0 0 0 -1 3039.dat
0 STEP

