0 chateau_llm
0 Name: chateau_llm.ldr
0 Author: text2legoCAD
0 BFC CERTIFY CC-WITEMPORARY

1 72 70 -12 40 1 0 0 0 1 0 0 0 1 3010.dat
1 72 130 -12 40 1 0 0 0 1 0 0 0 1 3004.dat
1 72 390 -12 40 1 0 0 0 1 0 0 0 1 3010.dat
1 72 450 -12 40 1 0 0 0 1 0 0 0 1 3004.dat
1 72 40 -12 90 0 0 1 0 1 0 -1 0 0 3010.dat
1 72 140 -12 90 0 0 1 0 1 0 -1 0 0 3010.dat
1 72 360 -12 90 0 0 1 0 1 0 -1 0 0 3010.dat
1 72 460 -12 90 0 0 1 0 1 0 -1 0 0 3010.dat
1 72 190 -12 90 1 0 0 0 1 0 0 0 1 3001.dat
1 72 250 -12 90 1 0 0 0 1 0 0 0 1 3003.dat
1 72 310 -12 90 1 0 0 0 1 0 0 0 1 3001.dat
1 70 200 -12 150 0 0 1 0 1 0 -1 0 0 3010.dat
0 STEP

1 70 230 -4 120 1 0 0 0 1 0 0 0 1 3023.dat
1 70 310 -12 120 1 0 0 0 1 0 0 0 1 3004.dat
1 70 340 -12 150 0 0 1 0 1 0 -1 0 0 3010.dat
1 72 50 -12 140 1 0 0 0 1 0 0 0 1 3004.dat
1 72 110 -12 140 1 0 0 0 1 0 0 0 1 3010.dat
1 70 250 -12 150 1 0 0 0 1 0 0 0 1 3001.dat
1 70 310 -12 150 1 0 0 0 1 0 0 0 1 3003.dat
1 72 370 -12 140 1 0 0 0 1 0 0 0 1 3004.dat
1 72 430 -12 140 1 0 0 0 1 0 0 0 1 3010.dat
1 72 90 -12 190 0 0 1 0 1 0 -1 0 0 3001.dat
1 72 410 -12 190 0 0 1 0 1 0 -1 0 0 3001.dat
1 70 250 -12 190 1 0 0 0 1 0 0 0 1 3001.dat
0 STEP

1 70 310 -12 210 0 0 1 0 1 0 -1 0 0 3001.dat
1 70 200 -12 230 0 0 1 0 1 0 -1 0 0 3010.dat
1 70 340 -12 230 0 0 1 0 1 0 -1 0 0 3010.dat
1 70 250 -12 230 1 0 0 0 1 0 0 0 1 3001.dat
1 72 90 -12 250 1 0 0 0 1 0 0 0 1 3003.dat
1 72 410 -12 250 1 0 0 0 1 0 0 0 1 3003.dat
1 70 230 -12 260 1 0 0 0 1 0 0 0 1 3004.dat
1 70 290 -12 260 1 0 0 0 1 0 0 0 1 3010.dat
1 72 90 -12 310 0 0 1 0 1 0 -1 0 0 3001.dat
1 8 190 -12 290 1 0 0 0 1 0 0 0 1 3001.dat
1 8 270 -12 290 1 0 0 0 1 0 0 0 1 3001.dat
1 8 350 -12 290 1 0 0 0 1 0 0 0 1 3001.dat
0 STEP

1 72 410 -12 310 0 0 1 0 1 0 -1 0 0 3001.dat
1 8 190 -12 330 1 0 0 0 1 0 0 0 1 3001.dat
1 8 270 -12 330 1 0 0 0 1 0 0 0 1 3001.dat
1 8 350 -12 330 1 0 0 0 1 0 0 0 1 3001.dat
1 72 70 -12 360 1 0 0 0 1 0 0 0 1 3010.dat
1 72 130 -12 360 1 0 0 0 1 0 0 0 1 3004.dat
1 72 390 -12 360 1 0 0 0 1 0 0 0 1 3010.dat
1 72 450 -12 360 1 0 0 0 1 0 0 0 1 3004.dat
1 72 40 -12 410 0 0 1 0 1 0 -1 0 0 3010.dat
1 72 140 -12 410 0 0 1 0 1 0 -1 0 0 3010.dat
1 72 360 -12 410 0 0 1 0 1 0 -1 0 0 3010.dat
1 72 460 -12 410 0 0 1 0 1 0 -1 0 0 3010.dat
0 STEP

1 72 190 -12 410 1 0 0 0 1 0 0 0 1 3001.dat
1 72 250 -12 410 1 0 0 0 1 0 0 0 1 3003.dat
1 72 310 -12 410 1 0 0 0 1 0 0 0 1 3001.dat
1 72 50 -12 460 1 0 0 0 1 0 0 0 1 3004.dat
1 72 110 -12 460 1 0 0 0 1 0 0 0 1 3010.dat
1 72 370 -12 460 1 0 0 0 1 0 0 0 1 3004.dat
1 72 430 -12 460 1 0 0 0 1 0 0 0 1 3010.dat
0 STEP

1 70 230 -20 120 1 0 0 0 1 0 0 0 1 3004.dat
0 STEP

1 72 50 -36 40 1 0 0 0 1 0 0 0 1 3004.dat
1 72 370 -36 40 1 0 0 0 1 0 0 0 1 3004.dat
1 72 250 -36 90 1 0 0 0 1 0 0 0 1 3003.dat
1 72 130 -36 140 1 0 0 0 1 0 0 0 1 3004.dat
1 72 450 -36 140 1 0 0 0 1 0 0 0 1 3004.dat
1 72 90 -36 250 1 0 0 0 1 0 0 0 1 3003.dat
1 72 410 -36 250 1 0 0 0 1 0 0 0 1 3003.dat
1 70 230 -36 260 1 0 0 0 1 0 0 0 1 3004.dat
1 72 50 -36 360 1 0 0 0 1 0 0 0 1 3004.dat
1 72 370 -36 360 1 0 0 0 1 0 0 0 1 3004.dat
1 72 250 -36 410 1 0 0 0 1 0 0 0 1 3003.dat
1 72 130 -36 460 1 0 0 0 1 0 0 0 1 3004.dat
0 STEP

1 72 110 -36 40 1 0 0 0 1 0 0 0 1 3010.dat
1 72 430 -36 40 1 0 0 0 1 0 0 0 1 3010.dat
1 72 70 -36 140 1 0 0 0 1 0 0 0 1 3010.dat
1 72 390 -36 140 1 0 0 0 1 0 0 0 1 3010.dat
1 70 290 -36 260 1 0 0 0 1 0 0 0 1 3010.dat
1 72 110 -36 360 1 0 0 0 1 0 0 0 1 3010.dat
1 72 430 -36 360 1 0 0 0 1 0 0 0 1 3010.dat
1 72 70 -36 460 1 0 0 0 1 0 0 0 1 3010.dat
1 72 450 -36 460 1 0 0 0 1 0 0 0 1 3004.dat
0 STEP

1 72 40 -36 90 0 0 1 0 1 0 -1 0 0 3010.dat
1 72 140 -36 90 0 0 1 0 1 0 -1 0 0 3010.dat
1 72 360 -36 90 0 0 1 0 1 0 -1 0 0 3010.dat
1 72 460 -36 90 0 0 1 0 1 0 -1 0 0 3010.dat
1 72 90 -36 190 0 0 1 0 1 0 -1 0 0 3001.dat
1 72 410 -36 190 0 0 1 0 1 0 -1 0 0 3001.dat
1 72 90 -36 310 0 0 1 0 1 0 -1 0 0 3001.dat
1 72 410 -36 310 0 0 1 0 1 0 -1 0 0 3001.dat
1 72 40 -36 410 0 0 1 0 1 0 -1 0 0 3010.dat
1 72 140 -36 410 0 0 1 0 1 0 -1 0 0 3010.dat
1 72 460 -36 410 0 0 1 0 1 0 -1 0 0 3010.dat
1 72 390 -36 460 1 0 0 0 1 0 0 0 1 3010.dat
0 STEP

1 72 190 -36 90 1 0 0 0 1 0 0 0 1 3001.dat
1 72 310 -36 90 1 0 0 0 1 0 0 0 1 3001.dat
1 72 360 -36 410 0 0 1 0 1 0 -1 0 0 3010.dat
1 72 190 -36 410 1 0 0 0 1 0 0 0 1 3001.dat
0 STEP

1 70 200 -36 150 0 0 1 0 1 0 -1 0 0 3010.dat
1 70 310 -36 120 1 0 0 0 1 0 0 0 1 3004.dat
1 72 310 -36 410 1 0 0 0 1 0 0 0 1 3001.dat
0 STEP

1 70 340 -36 150 0 0 1 0 1 0 -1 0 0 3010.dat
1 70 200 -36 230 0 0 1 0 1 0 -1 0 0 3010.dat
0 STEP

1 70 340 -36 230 0 0 1 0 1 0 -1 0 0 3010.dat
0 STEP

1 70 230 -36 120 1 0 0 0 1 0 0 0 1 3023.dat
0 STEP

1 72 90 -60 40 1 0 0 0 1 0 0 0 1 3010.dat
1 72 410 -60 40 1 0 0 0 1 0 0 0 1 3010.dat
1 72 250 -60 90 1 0 0 0 1 0 0 0 1 3003.dat
1 72 40 -60 130 0 0 1 0 1 0 -1 0 0 3004.dat
1 72 140 -60 130 0 0 1 0 1 0 -1 0 0 3004.dat
1 72 360 -60 130 0 0 1 0 1 0 -1 0 0 3004.dat
1 72 460 -60 130 0 0 1 0 1 0 -1 0 0 3004.dat
1 72 90 -60 250 1 0 0 0 1 0 0 0 1 3003.dat
1 72 410 -60 250 1 0 0 0 1 0 0 0 1 3003.dat
1 70 310 -60 260 1 0 0 0 1 0 0 0 1 3004.dat
1 72 90 -60 360 1 0 0 0 1 0 0 0 1 3010.dat
1 72 410 -60 360 1 0 0 0 1 0 0 0 1 3010.dat
0 STEP

1 72 40 -60 70 0 0 1 0 1 0 -1 0 0 3010.dat
1 72 140 -60 70 0 0 1 0 1 0 -1 0 0 3010.dat
1 72 360 -60 70 0 0 1 0 1 0 -1 0 0 3010.dat
1 72 460 -60 70 0 0 1 0 1 0 -1 0 0 3010.dat
1 72 90 -60 140 1 0 0 0 1 0 0 0 1 3010.dat
1 72 410 -60 140 1 0 0 0 1 0 0 0 1 3010.dat
1 70 250 -60 260 1 0 0 0 1 0 0 0 1 3010.dat
1 72 90 -60 310 0 0 1 0 1 0 -1 0 0 3001.dat
1 72 410 -60 310 0 0 1 0 1 0 -1 0 0 3001.dat
1 72 250 -60 410 1 0 0 0 1 0 0 0 1 3003.dat
1 72 40 -60 450 0 0 1 0 1 0 -1 0 0 3004.dat
1 72 140 -60 450 0 0 1 0 1 0 -1 0 0 3004.dat
0 STEP

1 72 190 -60 90 1 0 0 0 1 0 0 0 1 3001.dat
1 72 310 -60 90 1 0 0 0 1 0 0 0 1 3001.dat
1 72 90 -60 190 0 0 1 0 1 0 -1 0 0 3001.dat
1 72 410 -60 190 0 0 1 0 1 0 -1 0 0 3001.dat
1 72 40 -60 390 0 0 1 0 1 0 -1 0 0 3010.dat
1 72 140 -60 390 0 0 1 0 1 0 -1 0 0 3010.dat
1 72 360 -60 450 0 0 1 0 1 0 -1 0 0 3004.dat
1 72 460 -60 450 0 0 1 0 1 0 -1 0 0 3004.dat
1 72 90 -60 460 1 0 0 0 1 0 0 0 1 3010.dat
0 STEP

1 70 200 -60 150 0 0 1 0 1 0 -1 0 0 3010.dat
1 70 290 -60 120 1 0 0 0 1 0 0 0 1 3010.dat
1 72 360 -60 390 0 0 1 0 1 0 -1 0 0 3010.dat
1 72 460 -60 390 0 0 1 0 1 0 -1 0 0 3010.dat
1 72 190 -60 410 1 0 0 0 1 0 0 0 1 3001.dat
1 72 410 -60 460 1 0 0 0 1 0 0 0 1 3010.dat
0 STEP

1 70 340 -60 150 0 0 1 0 1 0 -1 0 0 3010.dat
1 70 200 -60 230 0 0 1 0 1 0 -1 0 0 3010.dat
1 72 310 -60 410 1 0 0 0 1 0 0 0 1 3001.dat
0 STEP

1 70 340 -60 230 0 0 1 0 1 0 -1 0 0 3010.dat
0 STEP

1 72 90 -84 40 1 0 0 0 1 0 0 0 1 3010.dat
1 72 410 -84 40 1 0 0 0 1 0 0 0 1 3010.dat
1 72 250 -84 90 1 0 0 0 1 0 0 0 1 3003.dat
1 72 40 -84 130 0 0 1 0 1 0 -1 0 0 3004.dat
1 72 140 -84 130 0 0 1 0 1 0 -1 0 0 3004.dat
1 72 360 -84 130 0 0 1 0 1 0 -1 0 0 3004.dat
1 72 460 -84 130 0 0 1 0 1 0 -1 0 0 3004.dat
1 70 200 -84 230 0 0 1 0 1 0 -1 0 0 3004.dat
1 70 340 -84 230 0 0 1 0 1 0 -1 0 0 3004.dat
1 72 90 -84 250 1 0 0 0 1 0 0 0 1 3003.dat
1 72 410 -84 250 1 0 0 0 1 0 0 0 1 3003.dat
1 72 90 -84 360 1 0 0 0 1 0 0 0 1 3010.dat
0 STEP

1 72 40 -84 70 0 0 1 0 1 0 -1 0 0 3010.dat
1 72 140 -84 70 0 0 1 0 1 0 -1 0 0 3010.dat
1 72 360 -84 70 0 0 1 0 1 0 -1 0 0 3010.dat
1 72 460 -84 70 0 0 1 0 1 0 -1 0 0 3010.dat
1 72 90 -84 140 1 0 0 0 1 0 0 0 1 3010.dat
1 72 410 -84 140 1 0 0 0 1 0 0 0 1 3010.dat
1 70 230 -84 260 1 0 0 0 1 0 0 0 1 3010.dat
1 72 90 -84 310 0 0 1 0 1 0 -1 0 0 3001.dat
1 72 410 -84 360 1 0 0 0 1 0 0 0 1 3010.dat
1 72 250 -84 410 1 0 0 0 1 0 0 0 1 3003.dat
1 72 40 -84 450 0 0 1 0 1 0 -1 0 0 3004.dat
1 72 140 -84 450 0 0 1 0 1 0 -1 0 0 3004.dat
0 STEP

1 72 190 -84 90 1 0 0 0 1 0 0 0 1 3001.dat
1 72 310 -84 90 1 0 0 0 1 0 0 0 1 3001.dat
1 72 90 -84 190 0 0 1 0 1 0 -1 0 0 3001.dat
1 72 410 -84 190 0 0 1 0 1 0 -1 0 0 3001.dat
1 70 310 -84 260 1 0 0 0 1 0 0 0 1 3010.dat
1 72 410 -84 310 0 0 1 0 1 0 -1 0 0 3001.dat
1 72 40 -84 390 0 0 1 0 1 0 -1 0 0 3010.dat
1 72 140 -84 390 0 0 1 0 1 0 -1 0 0 3010.dat
1 72 360 -84 450 0 0 1 0 1 0 -1 0 0 3004.dat
1 72 460 -84 450 0 0 1 0 1 0 -1 0 0 3004.dat
1 72 90 -84 460 1 0 0 0 1 0 0 0 1 3010.dat
0 STEP

1 70 230 -84 120 1 0 0 0 1 0 0 0 1 3010.dat
1 72 360 -84 390 0 0 1 0 1 0 -1 0 0 3010.dat
1 72 460 -84 390 0 0 1 0 1 0 -1 0 0 3010.dat
1 72 190 -84 410 1 0 0 0 1 0 0 0 1 3001.dat
1 72 410 -84 460 1 0 0 0 1 0 0 0 1 3010.dat
0 STEP

1 70 310 -84 120 1 0 0 0 1 0 0 0 1 3010.dat
1 70 200 -84 170 0 0 1 0 1 0 -1 0 0 3010.dat
1 72 310 -84 410 1 0 0 0 1 0 0 0 1 3001.dat
0 STEP

1 70 340 -84 170 0 0 1 0 1 0 -1 0 0 3010.dat
0 STEP

1 72 90 -108 40 1 0 0 0 1 0 0 0 1 3010.dat
1 72 410 -108 40 1 0 0 0 1 0 0 0 1 3010.dat
1 72 250 -108 90 1 0 0 0 1 0 0 0 1 3003.dat
1 72 40 -108 130 0 0 1 0 1 0 -1 0 0 3004.dat
1 72 140 -108 130 0 0 1 0 1 0 -1 0 0 3004.dat
1 72 360 -108 130 0 0 1 0 1 0 -1 0 0 3004.dat
1 72 460 -108 130 0 0 1 0 1 0 -1 0 0 3004.dat
1 70 200 -108 150 0 0 1 0 1 0 -1 0 0 3004.dat
1 72 90 -108 250 1 0 0 0 1 0 0 0 1 3003.dat
1 72 410 -108 250 1 0 0 0 1 0 0 0 1 3003.dat
1 70 230 -108 260 1 0 0 0 1 0 0 0 1 3010.dat
1 72 90 -108 360 1 0 0 0 1 0 0 0 1 3010.dat
0 STEP

1 72 40 -108 70 0 0 1 0 1 0 -1 0 0 3010.dat
1 72 140 -108 70 0 0 1 0 1 0 -1 0 0 3010.dat
1 72 360 -108 70 0 0 1 0 1 0 -1 0 0 3010.dat
1 72 460 -108 70 0 0 1 0 1 0 -1 0 0 3010.dat
1 72 90 -108 140 1 0 0 0 1 0 0 0 1 3010.dat
1 70 340 -108 150 0 0 1 0 1 0 -1 0 0 3004.dat
1 72 410 -108 140 1 0 0 0 1 0 0 0 1 3010.dat
1 70 200 -108 210 0 0 1 0 1 0 -1 0 0 3010.dat
1 70 310 -108 260 1 0 0 0 1 0 0 0 1 3010.dat
1 72 90 -108 310 0 0 1 0 1 0 -1 0 0 3001.dat
1 72 410 -108 360 1 0 0 0 1 0 0 0 1 3010.dat
1 72 250 -108 410 1 0 0 0 1 0 0 0 1 3003.dat
0 STEP

1 72 190 -108 90 1 0 0 0 1 0 0 0 1 3001.dat
1 72 310 -108 90 1 0 0 0 1 0 0 0 1 3001.dat
1 72 90 -108 190 0 0 1 0 1 0 -1 0 0 3001.dat
1 72 410 -108 190 0 0 1 0 1 0 -1 0 0 3001.dat
1 70 340 -108 210 0 0 1 0 1 0 -1 0 0 3010.dat
1 72 410 -108 310 0 0 1 0 1 0 -1 0 0 3001.dat
1 72 40 -108 450 0 0 1 0 1 0 -1 0 0 3004.dat
1 72 140 -108 450 0 0 1 0 1 0 -1 0 0 3004.dat
1 72 360 -108 450 0 0 1 0 1 0 -1 0 0 3004.dat
1 72 460 -108 450 0 0 1 0 1 0 -1 0 0 3004.dat
0 STEP

1 70 230 -108 120 1 0 0 0 1 0 0 0 1 3010.dat
1 72 40 -108 390 0 0 1 0 1 0 -1 0 0 3010.dat
1 72 140 -108 390 0 0 1 0 1 0 -1 0 0 3010.dat
1 72 360 -108 390 0 0 1 0 1 0 -1 0 0 3010.dat
1 72 460 -108 390 0 0 1 0 1 0 -1 0 0 3010.dat
1 72 90 -108 460 1 0 0 0 1 0 0 0 1 3010.dat
1 72 410 -108 460 1 0 0 0 1 0 0 0 1 3010.dat
0 STEP

1 70 310 -108 120 1 0 0 0 1 0 0 0 1 3010.dat
1 72 190 -108 410 1 0 0 0 1 0 0 0 1 3001.dat
1 72 310 -108 410 1 0 0 0 1 0 0 0 1 3001.dat
0 STEP

1 72 90 -132 40 1 0 0 0 1 0 0 0 1 3010.dat
1 72 410 -132 40 1 0 0 0 1 0 0 0 1 3010.dat
1 72 250 -132 90 1 0 0 0 1 0 0 0 1 3003.dat
1 72 40 -132 130 0 0 1 0 1 0 -1 0 0 3004.dat
1 72 140 -132 130 0 0 1 0 1 0 -1 0 0 3004.dat
1 72 360 -132 130 0 0 1 0 1 0 -1 0 0 3004.dat
1 72 460 -132 130 0 0 1 0 1 0 -1 0 0 3004.dat
1 72 90 -132 250 1 0 0 0 1 0 0 0 1 3003.dat
1 72 410 -132 250 1 0 0 0 1 0 0 0 1 3003.dat
1 70 230 -132 260 1 0 0 0 1 0 0 0 1 3004.dat
1 72 90 -132 360 1 0 0 0 1 0 0 0 1 3010.dat
1 72 410 -132 360 1 0 0 0 1 0 0 0 1 3010.dat
0 STEP

1 72 40 -132 70 0 0 1 0 1 0 -1 0 0 3010.dat
1 72 140 -132 70 0 0 1 0 1 0 -1 0 0 3010.dat
1 72 360 -132 70 0 0 1 0 1 0 -1 0 0 3010.dat
1 72 460 -132 70 0 0 1 0 1 0 -1 0 0 3010.dat
1 72 90 -132 140 1 0 0 0 1 0 0 0 1 3010.dat
1 72 410 -132 140 1 0 0 0 1 0 0 0 1 3010.dat
1 70 290 -132 260 1 0 0 0 1 0 0 0 1 3010.dat
1 72 90 -132 310 0 0 1 0 1 0 -1 0 0 3001.dat
1 72 410 -132 310 0 0 1 0 1 0 -1 0 0 3001.dat
1 72 250 -132 410 1 0 0 0 1 0 0 0 1 3003.dat
1 72 40 -132 450 0 0 1 0 1 0 -1 0 0 3004.dat
1 72 140 -132 450 0 0 1 0 1 0 -1 0 0 3004.dat
0 STEP

1 72 190 -132 90 1 0 0 0 1 0 0 0 1 3001.dat
1 72 310 -132 90 1 0 0 0 1 0 0 0 1 3001.dat
1 72 90 -132 190 0 0 1 0 1 0 -1 0 0 3001.dat
1 72 410 -132 190 0 0 1 0 1 0 -1 0 0 3001.dat
1 72 40 -132 390 0 0 1 0 1 0 -1 0 0 3010.dat
1 72 140 -132 390 0 0 1 0 1 0 -1 0 0 3010.dat
1 72 360 -132 450 0 0 1 0 1 0 -1 0 0 3004.dat
1 72 460 -132 450 0 0 1 0 1 0 -1 0 0 3004.dat
1 72 90 -132 460 1 0 0 0 1 0 0 0 1 3010.dat
0 STEP

1 70 230 -132 120 1 0 0 0 1 0 0 0 1 3004.dat
1 72 360 -132 390 0 0 1 0 1 0 -1 0 0 3010.dat
1 72 460 -132 390 0 0 1 0 1 0 -1 0 0 3010.dat
1 72 190 -132 410 1 0 0 0 1 0 0 0 1 3001.dat
1 72 410 -132 460 1 0 0 0 1 0 0 0 1 3010.dat
0 STEP

1 70 200 -132 150 0 0 1 0 1 0 -1 0 0 3010.dat
1 70 290 -132 120 1 0 0 0 1 0 0 0 1 3010.dat
1 72 310 -132 410 1 0 0 0 1 0 0 0 1 3001.dat
0 STEP

1 70 340 -132 150 0 0 1 0 1 0 -1 0 0 3010.dat
1 70 200 -132 230 0 0 1 0 1 0 -1 0 0 3010.dat
0 STEP

1 70 340 -132 230 0 0 1 0 1 0 -1 0 0 3010.dat
0 STEP

1 72 90 -156 40 1 0 0 0 1 0 0 0 1 3010.dat
1 72 410 -156 40 1 0 0 0 1 0 0 0 1 3010.dat
1 72 40 -156 130 0 0 1 0 1 0 -1 0 0 3004.dat
1 72 140 -156 130 0 0 1 0 1 0 -1 0 0 3004.dat
1 70 310 -156 120 1 0 0 0 1 0 0 0 1 3004.dat
1 72 360 -156 130 0 0 1 0 1 0 -1 0 0 3004.dat
1 72 460 -156 130 0 0 1 0 1 0 -1 0 0 3004.dat
1 70 310 -156 260 1 0 0 0 1 0 0 0 1 3004.dat
1 72 90 -156 360 1 0 0 0 1 0 0 0 1 3010.dat
1 72 410 -156 360 1 0 0 0 1 0 0 0 1 3010.dat
1 72 40 -156 450 0 0 1 0 1 0 -1 0 0 3004.dat
1 72 140 -156 450 0 0 1 0 1 0 -1 0 0 3004.dat
0 STEP

1 72 40 -156 70 0 0 1 0 1 0 -1 0 0 3010.dat
1 72 140 -156 70 0 0 1 0 1 0 -1 0 0 3010.dat
1 72 360 -156 70 0 0 1 0 1 0 -1 0 0 3010.dat
1 72 460 -156 70 0 0 1 0 1 0 -1 0 0 3010.dat
1 70 250 -156 120 1 0 0 0 1 0 0 0 1 3010.dat
1 70 340 -156 150 0 0 1 0 1 0 -1 0 0 3010.dat
1 72 90 -156 140 1 0 0 0 1 0 0 0 1 3010.dat
1 72 410 -156 140 1 0 0 0 1 0 0 0 1 3010.dat
1 70 250 -156 260 1 0 0 0 1 0 0 0 1 3010.dat
1 72 40 -156 390 0 0 1 0 1 0 -1 0 0 3010.dat
1 72 140 -156 390 0 0 1 0 1 0 -1 0 0 3010.dat
1 72 360 -156 450 0 0 1 0 1 0 -1 0 0 3004.dat
0 STEP

1 70 200 -156 150 0 0 1 0 1 0 -1 0 0 3010.dat
1 70 340 -156 230 0 0 1 0 1 0 -1 0 0 3010.dat
1 72 360 -156 390 0 0 1 0 1 0 -1 0 0 3010.dat
1 72 460 -156 450 0 0 1 0 1 0 -1 0 0 3004.dat
1 72 90 -156 460 1 0 0 0 1 0 0 0 1 3010.dat
0 STEP

1 70 200 -156 230 0 0 1 0 1 0 -1 0 0 3010.dat
1 72 460 -156 390 0 0 1 0 1 0 -1 0 0 3010.dat
1 72 410 -156 460 1 0 0 0 1 0 0 0 1 3010.dat
0 STEP

1 72 90 -180 40 1 0 0 0 1 0 0 0 1 3010.dat
1 72 410 -180 40 1 0 0 0 1 0 0 0 1 3010.dat
1 72 40 -180 130 0 0 1 0 1 0 -1 0 0 3004.dat
1 72 140 -180 130 0 0 1 0 1 0 -1 0 0 3004.dat
1 70 230 -180 130 1 0 0 0 1 0 0 0 1 3037.dat
1 72 360 -180 130 0 0 1 0 1 0 -1 0 0 3004.dat
1 72 460 -180 130 0 0 1 0 1 0 -1 0 0 3004.dat
1 70 210 -180 270 -1 0 0 0 1 0 0 0 -1 3037.dat
1 72 90 -180 360 1 0 0 0 1 0 0 0 1 3010.dat
1 72 410 -180 360 1 0 0 0 1 0 0 0 1 3010.dat
1 72 40 -180 450 0 0 1 0 1 0 -1 0 0 3004.dat
1 72 140 -180 450 0 0 1 0 1 0 -1 0 0 3004.dat
0 STEP

1 72 40 -180 70 0 0 1 0 1 0 -1 0 0 3010.dat
1 72 140 -180 70 0 0 1 0 1 0 -1 0 0 3010.dat
1 72 360 -180 70 0 0 1 0 1 0 -1 0 0 3010.dat
1 72 460 -180 70 0 0 1 0 1 0 -1 0 0 3010.dat
1 70 310 -180 130 1 0 0 0 1 0 0 0 1 3037.dat
1 72 90 -180 140 1 0 0 0 1 0 0 0 1 3010.dat
1 72 410 -180 140 1 0 0 0 1 0 0 0 1 3010.dat
1 70 230 -180 160 1 0 0 0 1 0 0 0 1 3010.dat
1 70 290 -180 270 -1 0 0 0 1 0 0 0 -1 3037.dat
1 72 40 -180 390 0 0 1 0 1 0 -1 0 0 3010.dat
1 72 140 -180 390 0 0 1 0 1 0 -1 0 0 3010.dat
1 72 360 -180 450 0 0 1 0 1 0 -1 0 0 3004.dat
0 STEP

1 70 310 -180 160 1 0 0 0 1 0 0 0 1 3010.dat
1 70 230 -180 180 1 0 0 0 1 0 0 0 1 3010.dat
1 72 360 -180 390 0 0 1 0 1 0 -1 0 0 3010.dat
1 72 460 -180 450 0 0 1 0 1 0 -1 0 0 3004.dat
1 72 90 -180 460 1 0 0 0 1 0 0 0 1 3010.dat
0 STEP

1 70 310 -180 180 1 0 0 0 1 0 0 0 1 3010.dat
1 70 230 -180 200 1 0 0 0 1 0 0 0 1 3010.dat
1 72 460 -180 390 0 0 1 0 1 0 -1 0 0 3010.dat
1 72 410 -180 460 1 0 0 0 1 0 0 0 1 3010.dat
0 STEP

1 70 310 -180 200 1 0 0 0 1 0 0 0 1 3010.dat
1 70 230 -180 220 1 0 0 0 1 0 0 0 1 3010.dat
0 STEP

1 70 310 -180 220 1 0 0 0 1 0 0 0 1 3010.dat
0 STEP

1 72 90 -204 40 1 0 0 0 1 0 0 0 1 3010.dat
1 72 410 -204 40 1 0 0 0 1 0 0 0 1 3010.dat
1 72 40 -204 130 0 0 1 0 1 0 -1 0 0 3004.dat
1 72 140 -204 130 0 0 1 0 1 0 -1 0 0 3004.dat
1 72 360 -204 130 0 0 1 0 1 0 -1 0 0 3004.dat
1 72 460 -204 130 0 0 1 0 1 0 -1 0 0 3004.dat
1 70 230 -204 170 1 0 0 0 1 0 0 0 1 3037.dat
1 72 90 -204 360 1 0 0 0 1 0 0 0 1 3010.dat
1 72 410 -204 360 1 0 0 0 1 0 0 0 1 3010.dat
1 72 40 -204 450 0 0 1 0 1 0 -1 0 0 3004.dat
1 72 140 -204 450 0 0 1 0 1 0 -1 0 0 3004.dat
1 72 360 -204 450 0 0 1 0 1 0 -1 0 0 3004.dat
0 STEP

1 72 40 -204 70 0 0 1 0 1 0 -1 0 0 3010.dat
1 72 140 -204 70 0 0 1 0 1 0 -1 0 0 3010.dat
1 72 360 -204 70 0 0 1 0 1 0 -1 0 0 3010.dat
1 72 460 -204 70 0 0 1 0 1 0 -1 0 0 3010.dat
1 72 90 -204 140 1 0 0 0 1 0 0 0 1 3010.dat
1 72 410 -204 140 1 0 0 0 1 0 0 0 1 3010.dat
1 70 310 -204 170 1 0 0 0 1 0 0 0 1 3037.dat
1 70 210 -204 230 -1 0 0 0 1 0 0 0 -1 3037.dat
1 72 40 -204 390 0 0 1 0 1 0 -1 0 0 3010.dat
1 72 140 -204 390 0 0 1 0 1 0 -1 0 0 3010.dat
1 72 360 -204 390 0 0 1 0 1 0 -1 0 0 3010.dat
1 72 460 -204 450 0 0 1 0 1 0 -1 0 0 3004.dat
0 STEP

1 70 290 -204 230 -1 0 0 0 1 0 0 0 -1 3037.dat
1 72 460 -204 390 0 0 1 0 1 0 -1 0 0 3010.dat
1 72 90 -204 460 1 0 0 0 1 0 0 0 1 3010.dat
1 72 410 -204 460 1 0 0 0 1 0 0 0 1 3010.dat
0 STEP

1 72 50 -228 50 1 0 0 0 1 0 0 0 1 3045.dat
1 72 370 -228 50 1 0 0 0 1 0 0 0 1 3045.dat
1 72 50 -228 370 1 0 0 0 1 0 0 0 1 3045.dat
1 72 370 -228 370 1 0 0 0 1 0 0 0 1 3045.dat
0 STEP

1 72 90 -228 50 1 0 0 0 1 0 0 0 1 3039.dat
1 72 410 -228 50 1 0 0 0 1 0 0 0 1 3039.dat
1 72 50 -228 90 0 0 1 0 1 0 -1 0 0 3039.dat
1 72 370 -228 90 0 0 1 0 1 0 -1 0 0 3039.dat
1 72 90 -228 370 1 0 0 0 1 0 0 0 1 3039.dat
1 72 410 -228 370 1 0 0 0 1 0 0 0 1 3039.dat
1 72 50 -228 410 0 0 1 0 1 0 -1 0 0 3039.dat
1 72 370 -228 410 0 0 1 0 1 0 -1 0 0 3039.dat
0 STEP

1 72 130 -228 50 0 0 1 0 1 0 -1 0 0 3045.dat
1 72 450 -228 50 0 0 1 0 1 0 -1 0 0 3045.dat
1 72 50 -228 130 -1 0 0 0 1 0 0 0 -1 3045.dat
1 72 370 -228 130 -1 0 0 0 1 0 0 0 -1 3045.dat
1 72 130 -228 370 0 0 1 0 1 0 -1 0 0 3045.dat
1 72 450 -228 370 0 0 1 0 1 0 -1 0 0 3045.dat
1 72 50 -228 450 -1 0 0 0 1 0 0 0 -1 3045.dat
1 72 370 -228 450 -1 0 0 0 1 0 0 0 -1 3045.dat
0 STEP

1 72 130 -228 90 0 0 -1 0 1 0 1 0 0 3039.dat
1 72 450 -228 90 0 0 -1 0 1 0 1 0 0 3039.dat
1 72 90 -228 130 -1 0 0 0 1 0 0 0 -1 3039.dat
1 72 410 -228 130 -1 0 0 0 1 0 0 0 -1 3039.dat
1 72 130 -228 410 0 0 -1 0 1 0 1 0 0 3039.dat
1 72 450 -228 410 0 0 -1 0 1 0 1 0 0 3039.dat
1 72 90 -228 450 -1 0 0 0 1 0 0 0 -1 3039.dat
1 72 410 -228 450 -1 0 0 0 1 0 0 0 -1 3039.dat
0 STEP

1 72 90 -228 90 1 0 0 0 1 0 0 0 1 3003.dat
1 72 410 -228 90 1 0 0 0 1 0 0 0 1 3003.dat
1 72 130 -228 130 0 0 -1 0 1 0 1 0 0 3045.dat
1 72 450 -228 130 0 0 -1 0 1 0 1 0 0 3045.dat
1 72 90 -228 410 1 0 0 0 1 0 0 0 1 3003.dat
1 72 410 -228 410 1 0 0 0 1 0 0 0 1 3003.dat
1 72 130 -228 450 0 0 -1 0 1 0 1 0 0 3045.dat
1 72 450 -228 450 0 0 -1 0 1 0 1 0 0 3045.dat
0 STEP

1 72 91.5 -264 91.5 1 0 0 0 1 0 0 0 1 98100.dat
1 72 411.5 -264 91.5 1 0 0 0 1 0 0 0 1 98100.dat
1 72 91.5 -264 411.5 1 0 0 0 1 0 0 0 1 98100.dat
1 72 411.5 -264 411.5 1 0 0 0 1 0 0 0 1 98100.dat
0 STEP

