0 chateau_attache
0 Name: chateau_attache.ldr
0 Author: text2legoCAD
0 BFC CERTIFY CC-WITEMPORARY

1 72 90 -12 40 1 0 0 0 1 0 0 0 1 3009.dat
1 72 330 -12 40 1 0 0 0 1 0 0 0 1 3009.dat
1 72 40 -12 90 0 0 1 0 1 0 -1 0 0 3010.dat
1 72 140 -12 90 0 0 1 0 1 0 -1 0 0 3010.dat
1 72 280 -12 90 0 0 1 0 1 0 -1 0 0 3010.dat
1 72 380 -12 90 0 0 1 0 1 0 -1 0 0 3010.dat
1 72 160 -12 80 1 0 0 0 1 0 0 0 1 3005.dat
1 72 260 -12 80 1 0 0 0 1 0 0 0 1 3005.dat
1 72 210 -12 100 1 0 0 0 1 0 0 0 1 3009.dat
1 72 90 -12 140 1 0 0 0 1 0 0 0 1 3009.dat
1 72 330 -12 140 1 0 0 0 1 0 0 0 1 3009.dat
1 72 80 -12 230 0 0 1 0 1 0 -1 0 0 3008.dat
0 STEP

1 72 110 -12 160 1 0 0 0 1 0 0 0 1 3004.dat
1 72 220 -12 160 1 0 0 0 1 0 0 0 1 3622.dat
1 72 260 -12 230 0 0 1 0 1 0 -1 0 0 3008.dat
1 72 110 -12 210 0 0 1 0 1 0 -1 0 0 3001.dat
1 72 150 -12 210 0 0 1 0 1 0 -1 0 0 3001.dat
1 72 210 -12 190 1 0 0 0 1 0 0 0 1 3001.dat
1 72 210 -12 230 1 0 0 0 1 0 0 0 1 3001.dat
1 72 130 -12 270 1 0 0 0 1 0 0 0 1 3001.dat
1 72 210 -12 270 1 0 0 0 1 0 0 0 1 3001.dat
1 72 170 -12 300 1 0 0 0 1 0 0 0 1 3008.dat
0 STEP

1 72 90 -36 40 1 0 0 0 1 0 0 0 1 3010.dat
1 72 330 -36 40 1 0 0 0 1 0 0 0 1 3010.dat
1 72 90 -36 140 1 0 0 0 1 0 0 0 1 3010.dat
1 72 330 -36 140 1 0 0 0 1 0 0 0 1 3010.dat
1 72 220 -36 160 1 0 0 0 1 0 0 0 1 3622.dat
1 72 170 -36 300 1 0 0 0 1 0 0 0 1 3008.dat
0 STEP

1 72 40 -36 90 0 0 1 0 1 0 -1 0 0 3009.dat
1 72 140 -36 90 0 0 1 0 1 0 -1 0 0 3009.dat
1 72 280 -36 90 0 0 1 0 1 0 -1 0 0 3009.dat
1 72 380 -36 90 0 0 1 0 1 0 -1 0 0 3009.dat
1 72 110 -36 160 1 0 0 0 1 0 0 0 1 3004.dat
1 72 260 -36 230 0 0 1 0 1 0 -1 0 0 3008.dat
0 STEP

1 72 160 -36 80 1 0 0 0 1 0 0 0 1 3005.dat
1 72 260 -36 80 1 0 0 0 1 0 0 0 1 3005.dat
1 72 80 -36 230 0 0 1 0 1 0 -1 0 0 3008.dat
0 STEP

1 72 210 -36 100 1 0 0 0 1 0 0 0 1 3009.dat
0 STEP

1 72 90 -60 40 1 0 0 0 1 0 0 0 1 3010.dat
1 72 330 -60 40 1 0 0 0 1 0 0 0 1 3010.dat
1 72 90 -60 140 1 0 0 0 1 0 0 0 1 3010.dat
1 72 330 -60 140 1 0 0 0 1 0 0 0 1 3010.dat
1 72 220 -60 160 1 0 0 0 1 0 0 0 1 3622.dat
1 72 170 -60 300 1 0 0 0 1 0 0 0 1 3008.dat
0 STEP

1 72 40 -60 90 0 0 1 0 1 0 -1 0 0 3009.dat
1 72 140 -60 90 0 0 1 0 1 0 -1 0 0 3009.dat
1 72 280 -60 90 0 0 1 0 1 0 -1 0 0 3009.dat
1 72 380 -60 90 0 0 1 0 1 0 -1 0 0 3009.dat
1 72 110 -60 160 1 0 0 0 1 0 0 0 1 3004.dat
1 72 260 -60 230 0 0 1 0 1 0 -1 0 0 3008.dat
0 STEP

1 72 210 -60 80 1 0 0 0 1 0 0 0 1 3009.dat
1 72 80 -60 230 0 0 1 0 1 0 -1 0 0 3008.dat
0 STEP

1 72 210 -60 100 1 0 0 0 1 0 0 0 1 3009.dat
0 STEP

1 72 90 -84 40 1 0 0 0 1 0 0 0 1 3010.dat
1 72 330 -84 40 1 0 0 0 1 0 0 0 1 3010.dat
1 72 90 -84 140 1 0 0 0 1 0 0 0 1 3010.dat
1 72 330 -84 140 1 0 0 0 1 0 0 0 1 3010.dat
1 72 170 -84 300 1 0 0 0 1 0 0 0 1 3008.dat
0 STEP

1 72 40 -84 90 0 0 1 0 1 0 -1 0 0 3009.dat
1 72 140 -84 90 0 0 1 0 1 0 -1 0 0 3009.dat
1 72 280 -84 90 0 0 1 0 1 0 -1 0 0 3009.dat
1 72 380 -84 90 0 0 1 0 1 0 -1 0 0 3009.dat
0 STEP

1 72 210 -84 80 1 0 0 0 1 0 0 0 1 3009.dat
1 72 170 -84 160 1 0 0 0 1 0 0 0 1 3008.dat
0 STEP

1 72 210 -84 100 1 0 0 0 1 0 0 0 1 3009.dat
1 72 80 -84 230 0 0 1 0 1 0 -1 0 0 3008.dat
1 72 260 -84 230 0 0 1 0 1 0 -1 0 0 3008.dat
0 STEP

1 72 90 -108 40 1 0 0 0 1 0 0 0 1 3010.dat
1 72 330 -108 40 1 0 0 0 1 0 0 0 1 3010.dat
1 72 90 -108 140 1 0 0 0 1 0 0 0 1 3010.dat
1 72 330 -108 140 1 0 0 0 1 0 0 0 1 3010.dat
1 72 170 -108 300 1 0 0 0 1 0 0 0 1 3008.dat
0 STEP

1 72 40 -108 90 0 0 1 0 1 0 -1 0 0 3009.dat
1 72 140 -108 90 0 0 1 0 1 0 -1 0 0 3009.dat
1 72 280 -108 90 0 0 1 0 1 0 -1 0 0 3009.dat
1 72 380 -108 90 0 0 1 0 1 0 -1 0 0 3009.dat
0 STEP

1 72 210 -108 80 1 0 0 0 1 0 0 0 1 3009.dat
1 72 170 -108 160 1 0 0 0 1 0 0 0 1 3008.dat
0 STEP

1 72 210 -108 100 1 0 0 0 1 0 0 0 1 3009.dat
1 72 80 -108 230 0 0 1 0 1 0 -1 0 0 3008.dat
1 72 260 -108 230 0 0 1 0 1 0 -1 0 0 3008.dat
0 STEP

1 72 90 -132 40 1 0 0 0 1 0 0 0 1 3010.dat
1 72 330 -132 40 1 0 0 0 1 0 0 0 1 3010.dat
1 72 90 -132 140 1 0 0 0 1 0 0 0 1 3010.dat
1 72 330 -132 140 1 0 0 0 1 0 0 0 1 3010.dat
1 72 170 -132 300 1 0 0 0 1 0 0 0 1 3008.dat
0 STEP

1 72 40 -132 90 0 0 1 0 1 0 -1 0 0 3009.dat
1 72 140 -132 90 0 0 1 0 1 0 -1 0 0 3009.dat
1 72 280 -132 90 0 0 1 0 1 0 -1 0 0 3009.dat
1 72 380 -132 90 0 0 1 0 1 0 -1 0 0 3009.dat
0 STEP

1 72 170 -132 160 1 0 0 0 1 0 0 0 1 3008.dat
0 STEP

1 72 80 -132 230 0 0 1 0 1 0 -1 0 0 3008.dat
1 72 260 -132 230 0 0 1 0 1 0 -1 0 0 3008.dat
0 STEP

1 72 90 -156 40 1 0 0 0 1 0 0 0 1 3010.dat
1 72 330 -156 40 1 0 0 0 1 0 0 0 1 3010.dat
1 72 90 -156 140 1 0 0 0 1 0 0 0 1 3010.dat
1 72 330 -156 140 1 0 0 0 1 0 0 0 1 3010.dat
1 72 90 -156 310 -1 0 0 0 1 0 0 0 -1 3037.dat
0 STEP

1 72 40 -156 90 0 0 1 0 1 0 -1 0 0 3009.dat
1 72 140 -156 90 0 0 1 0 1 0 -1 0 0 3009.dat
1 72 280 -156 90 0 0 1 0 1 0 -1 0 0 3009.dat
1 72 380 -156 90 0 0 1 0 1 0 -1 0 0 3009.dat
1 72 170 -156 310 -1 0 0 0 1 0 0 0 -1 3037.dat
0 STEP

1 72 110 -156 170 1 0 0 0 1 0 0 0 1 3037.dat
1 72 250 -156 290 -1 0 0 0 1 0 0 0 -1 3039.dat
0 STEP

1 72 190 -156 170 1 0 0 0 1 0 0 0 1 3037.dat
1 72 110 -156 200 1 0 0 0 1 0 0 0 1 3010.dat
0 STEP

1 72 250 -156 170 1 0 0 0 1 0 0 0 1 3039.dat
1 72 190 -156 200 1 0 0 0 1 0 0 0 1 3010.dat
1 72 110 -156 220 1 0 0 0 1 0 0 0 1 3010.dat
0 STEP

1 72 250 -156 200 1 0 0 0 1 0 0 0 1 3004.dat
1 72 190 -156 220 1 0 0 0 1 0 0 0 1 3010.dat
1 72 110 -156 240 1 0 0 0 1 0 0 0 1 3010.dat
0 STEP

1 72 250 -156 220 1 0 0 0 1 0 0 0 1 3004.dat
1 72 190 -156 240 1 0 0 0 1 0 0 0 1 3010.dat
1 72 110 -156 260 1 0 0 0 1 0 0 0 1 3010.dat
0 STEP

1 72 250 -156 240 1 0 0 0 1 0 0 0 1 3004.dat
1 72 190 -156 260 1 0 0 0 1 0 0 0 1 3010.dat
0 STEP

1 72 250 -156 260 1 0 0 0 1 0 0 0 1 3004.dat
0 STEP

1 72 40 -180 90 0 0 1 0 1 0 -1 0 0 3010.dat
1 72 140 -180 90 0 0 1 0 1 0 -1 0 0 3010.dat
1 72 280 -180 90 0 0 1 0 1 0 -1 0 0 3010.dat
1 72 380 -180 90 0 0 1 0 1 0 -1 0 0 3010.dat
1 72 110 -180 210 1 0 0 0 1 0 0 0 1 3037.dat
0 STEP

1 72 90 -180 40 1 0 0 0 1 0 0 0 1 3009.dat
1 72 330 -180 40 1 0 0 0 1 0 0 0 1 3009.dat
1 72 90 -180 140 1 0 0 0 1 0 0 0 1 3009.dat
1 72 330 -180 140 1 0 0 0 1 0 0 0 1 3009.dat
1 72 190 -180 210 1 0 0 0 1 0 0 0 1 3037.dat
1 72 90 -180 270 -1 0 0 0 1 0 0 0 -1 3037.dat
0 STEP

1 72 250 -180 210 1 0 0 0 1 0 0 0 1 3039.dat
1 72 170 -180 270 -1 0 0 0 1 0 0 0 -1 3037.dat
0 STEP

1 72 250 -180 250 -1 0 0 0 1 0 0 0 -1 3039.dat
0 STEP

1 72 50 -204 50 1 0 0 0 1 0 0 0 1 3045.dat
1 72 290 -204 50 1 0 0 0 1 0 0 0 1 3045.dat
0 STEP

1 72 90 -204 50 1 0 0 0 1 0 0 0 1 3039.dat
1 72 330 -204 50 1 0 0 0 1 0 0 0 1 3039.dat
1 72 50 -204 90 0 0 1 0 1 0 -1 0 0 3039.dat
1 72 290 -204 90 0 0 1 0 1 0 -1 0 0 3039.dat
0 STEP

1 72 130 -204 50 0 0 1 0 1 0 -1 0 0 3045.dat
1 72 370 -204 50 0 0 1 0 1 0 -1 0 0 3045.dat
1 72 50 -204 130 -1 0 0 0 1 0 0 0 -1 3045.dat
1 72 290 -204 130 -1 0 0 0 1 0 0 0 -1 3045.dat
0 STEP

1 72 130 -204 90 0 0 -1 0 1 0 1 0 0 3039.dat
1 72 370 -204 90 0 0 -1 0 1 0 1 0 0 3039.dat
1 72 90 -204 130 -1 0 0 0 1 0 0 0 -1 3039.dat
1 72 330 -204 130 -1 0 0 0 1 0 0 0 -1 3039.dat
0 STEP

1 72 90 -204 90 1 0 0 0 1 0 0 0 1 3003.dat
1 72 330 -204 90 1 0 0 0 1 0 0 0 1 3003.dat
1 72 130 -204 130 0 0 -1 0 1 0 1 0 0 3045.dat
1 72 370 -204 130 0 0 -1 0 1 0 1 0 0 3045.dat
0 STEP

1 72 91.5 -240 91.5 1 0 0 0 1 0 0 0 1 98100.dat
1 72 331.5 -240 91.5 1 0 0 0 1 0 0 0 1 98100.dat
0 STEP

