0 house
0 Name: house.ldr
0 Author: text2legoCAD
0 BFC CERTIFY CC-WITEMPORARY

0 // maison beige toit rouge

1 19 310 -4 310 1 0 0 0 1 0 0 0 1 3811.dat
0 STEP

1 19 190 -20 220 1 0 0 0 1 0 0 0 1 3010.dat
1 19 280 -20 220 1 0 0 0 1 0 0 0 1 3005.dat
1 19 340 -20 220 1 0 0 0 1 0 0 0 1 3005.dat
1 19 430 -20 220 1 0 0 0 1 0 0 0 1 3010.dat
1 19 190 -20 400 1 0 0 0 1 0 0 0 1 3010.dat
1 19 270 -20 400 1 0 0 0 1 0 0 0 1 3010.dat
1 19 350 -20 400 1 0 0 0 1 0 0 0 1 3010.dat
1 19 430 -20 400 1 0 0 0 1 0 0 0 1 3010.dat
1 19 160 -20 270 0 0 1 0 1 0 -1 0 0 3010.dat
1 19 160 -20 350 0 0 1 0 1 0 -1 0 0 3010.dat
1 19 460 -20 270 0 0 1 0 1 0 -1 0 0 3010.dat
1 19 460 -20 350 0 0 1 0 1 0 -1 0 0 3010.dat
1 14 310 -20 220 1 0 0 0 1 0 0 0 1 3004.dat
1 43 250 -12 220 1 0 0 0 1 0 0 0 1 3023.dat
1 43 250 -20 220 1 0 0 0 1 0 0 0 1 3023.dat
1 43 250 -28 220 1 0 0 0 1 0 0 0 1 3023.dat
1 43 370 -12 220 1 0 0 0 1 0 0 0 1 3023.dat
1 43 370 -20 220 1 0 0 0 1 0 0 0 1 3023.dat
1 43 370 -28 220 1 0 0 0 1 0 0 0 1 3023.dat
1 19 190 -44 220 1 0 0 0 1 0 0 0 1 3010.dat
1 19 260 -44 220 1 0 0 0 1 0 0 0 1 3622.dat
1 19 370 -44 220 1 0 0 0 1 0 0 0 1 3010.dat
1 19 440 -44 220 1 0 0 0 1 0 0 0 1 3622.dat
1 19 190 -44 400 1 0 0 0 1 0 0 0 1 3010.dat
1 19 270 -44 400 1 0 0 0 1 0 0 0 1 3010.dat
1 19 350 -44 400 1 0 0 0 1 0 0 0 1 3010.dat
1 19 430 -44 400 1 0 0 0 1 0 0 0 1 3010.dat
1 19 160 -44 270 0 0 1 0 1 0 -1 0 0 3010.dat
1 19 160 -44 350 0 0 1 0 1 0 -1 0 0 3010.dat
1 19 460 -44 270 0 0 1 0 1 0 -1 0 0 3010.dat
1 19 460 -44 350 0 0 1 0 1 0 -1 0 0 3010.dat
1 14 310 -44 220 1 0 0 0 1 0 0 0 1 3004.dat
1 19 190 -68 220 1 0 0 0 1 0 0 0 1 3010.dat
1 19 260 -68 220 1 0 0 0 1 0 0 0 1 3622.dat
1 19 370 -68 220 1 0 0 0 1 0 0 0 1 3010.dat
1 19 440 -68 220 1 0 0 0 1 0 0 0 1 3622.dat
1 19 190 -68 400 1 0 0 0 1 0 0 0 1 3010.dat
1 19 270 -68 400 1 0 0 0 1 0 0 0 1 3010.dat
1 19 350 -68 400 1 0 0 0 1 0 0 0 1 3010.dat
1 19 430 -68 400 1 0 0 0 1 0 0 0 1 3010.dat
1 19 160 -68 270 0 0 1 0 1 0 -1 0 0 3010.dat
1 19 160 -68 350 0 0 1 0 1 0 -1 0 0 3010.dat
1 19 460 -68 270 0 0 1 0 1 0 -1 0 0 3010.dat
1 19 460 -68 350 0 0 1 0 1 0 -1 0 0 3010.dat
1 14 310 -68 220 1 0 0 0 1 0 0 0 1 3004.dat
0 STEP

1 4 190 -92 230 1 0 0 0 1 0 0 0 1 3037.dat
1 4 270 -92 230 1 0 0 0 1 0 0 0 1 3037.dat
1 4 350 -92 230 1 0 0 0 1 0 0 0 1 3037.dat
1 4 430 -92 230 1 0 0 0 1 0 0 0 1 3037.dat
1 4 170 -92 410 -1 0 0 0 1 0 0 0 -1 3037.dat
1 4 250 -92 410 -1 0 0 0 1 0 0 0 -1 3037.dat
1 4 330 -92 410 -1 0 0 0 1 0 0 0 -1 3037.dat
1 4 410 -92 410 -1 0 0 0 1 0 0 0 -1 3037.dat
1 4 190 -92 260 1 0 0 0 1 0 0 0 1 3010.dat
1 4 270 -92 260 1 0 0 0 1 0 0 0 1 3010.dat
1 4 350 -92 260 1 0 0 0 1 0 0 0 1 3010.dat
1 4 430 -92 260 1 0 0 0 1 0 0 0 1 3010.dat
1 4 190 -92 280 1 0 0 0 1 0 0 0 1 3010.dat
1 4 270 -92 280 1 0 0 0 1 0 0 0 1 3010.dat
1 4 350 -92 280 1 0 0 0 1 0 0 0 1 3010.dat
1 4 430 -92 280 1 0 0 0 1 0 0 0 1 3010.dat
1 4 190 -92 300 1 0 0 0 1 0 0 0 1 3010.dat
1 4 270 -92 300 1 0 0 0 1 0 0 0 1 3010.dat
1 4 350 -92 300 1 0 0 0 1 0 0 0 1 3010.dat
1 4 430 -92 300 1 0 0 0 1 0 0 0 1 3010.dat
1 4 190 -92 320 1 0 0 0 1 0 0 0 1 3010.dat
1 4 270 -92 320 1 0 0 0 1 0 0 0 1 3010.dat
1 4 350 -92 320 1 0 0 0 1 0 0 0 1 3010.dat
1 4 430 -92 320 1 0 0 0 1 0 0 0 1 3010.dat
1 4 190 -92 340 1 0 0 0 1 0 0 0 1 3010.dat
1 4 270 -92 340 1 0 0 0 1 0 0 0 1 3010.dat
1 4 350 -92 340 1 0 0 0 1 0 0 0 1 3010.dat
1 4 430 -92 340 1 0 0 0 1 0 0 0 1 3010.dat
1 4 190 -92 360 1 0 0 0 1 0 0 0 1 3010.dat
1 4 270 -92 360 1 0 0 0 1 0 0 0 1 3010.dat
1 4 350 -92 360 1 0 0 0 1 0 0 0 1 3010.dat
1 4 430 -92 360 1 0 0 0 1 0 0 0 1 3010.dat
1 4 190 -116 270 1 0 0 0 1 0 0 0 1 3037.dat
1 4 270 -116 270 1 0 0 0 1 0 0 0 1 3037.dat
1 4 350 -116 270 1 0 0 0 1 0 0 0 1 3037.dat
1 4 430 -116 270 1 0 0 0 1 0 0 0 1 3037.dat
1 4 170 -116 370 -1 0 0 0 1 0 0 0 -1 3037.dat
1 4 250 -116 370 -1 0 0 0 1 0 0 0 -1 3037.dat
1 4 330 -116 370 -1 0 0 0 1 0 0 0 -1 3037.dat
1 4 410 -116 370 -1 0 0 0 1 0 0 0 -1 3037.dat
1 4 190 -116 300 1 0 0 0 1 0 0 0 1 3010.dat
1 4 270 -116 300 1 0 0 0 1 0 0 0 1 3010.dat
1 4 350 -116 300 1 0 0 0 1 0 0 0 1 3010.dat
1 4 430 -116 300 1 0 0 0 1 0 0 0 1 3010.dat
1 4 190 -116 320 1 0 0 0 1 0 0 0 1 3010.dat
1 4 270 -116 320 1 0 0 0 1 0 0 0 1 3010.dat
1 4 350 -116 320 1 0 0 0 1 0 0 0 1 3010.dat
1 4 430 -116 320 1 0 0 0 1 0 0 0 1 3010.dat
1 4 190 -140 310 1 0 0 0 1 0 0 0 1 3037.dat
1 4 270 -140 310 1 0 0 0 1 0 0 0 1 3037.dat
1 4 350 -140 310 1 0 0 0 1 0 0 0 1 3037.dat
1 4 430 -140 310 1 0 0 0 1 0 0 0 1 3037.dat
0 STEP

