0 maison_beige_toit_rouge
0 Name: maison_beige_toit_rouge.ldr
0 Author: text2legoCAD
0 BFC CERTIFY CC-WITEMPORARY

0 // Une maison avec des murs beige complets, un toit rouge en pente des deux côtés, une porte jaune au milieu de la façade avant.

1 19 70 -4 30 1 0 0 0 1 0 0 0 1 3035.dat
1 19 230 -4 30 1 0 0 0 1 0 0 0 1 3035.dat
1 19 70 -4 110 1 0 0 0 1 0 0 0 1 3035.dat
1 19 230 -4 110 1 0 0 0 1 0 0 0 1 3035.dat
0 STEP

1 19 10 -20 0 1 0 0 0 1 0 0 0 1 3004.dat
1 19 10 -20 40 1 0 0 0 1 0 0 0 1 3004.dat
1 19 10 -20 80 1 0 0 0 1 0 0 0 1 3004.dat
1 19 30 -20 130 1 0 0 0 1 0 0 0 1 3001.dat
1 19 110 -20 130 1 0 0 0 1 0 0 0 1 3001.dat
1 19 190 -20 130 1 0 0 0 1 0 0 0 1 3001.dat
1 19 210 -20 0 1 0 0 0 1 0 0 0 1 3004.dat
1 19 210 -20 40 1 0 0 0 1 0 0 0 1 3004.dat
1 19 210 -20 80 1 0 0 0 1 0 0 0 1 3004.dat
1 19 -20 -12 -10 0 0 1 0 1 0 -1 0 0 3004.dat
1 19 -20 -12 30 0 0 1 0 1 0 -1 0 0 3004.dat
1 19 -20 -12 70 0 0 1 0 1 0 -1 0 0 3004.dat
1 19 -20 -12 110 0 0 1 0 1 0 -1 0 0 3004.dat
1 19 0 -12 170 0 0 1 0 1 0 -1 0 0 3004.dat
0 STEP

1 19 10 -44 0 1 0 0 0 1 0 0 0 1 3004.dat
1 19 10 -44 40 1 0 0 0 1 0 0 0 1 3004.dat
1 19 10 -44 80 1 0 0 0 1 0 0 0 1 3004.dat
1 19 30 -44 130 1 0 0 0 1 0 0 0 1 3001.dat
1 19 110 -44 130 1 0 0 0 1 0 0 0 1 3001.dat
1 19 190 -44 130 1 0 0 0 1 0 0 0 1 3001.dat
1 19 210 -44 0 1 0 0 0 1 0 0 0 1 3004.dat
1 19 210 -44 40 1 0 0 0 1 0 0 0 1 3004.dat
1 19 210 -44 80 1 0 0 0 1 0 0 0 1 3004.dat
1 19 -20 -36 -10 0 0 1 0 1 0 -1 0 0 3004.dat
1 19 -20 -36 30 0 0 1 0 1 0 -1 0 0 3004.dat
1 19 -20 -36 70 0 0 1 0 1 0 -1 0 0 3004.dat
1 19 -20 -36 110 0 0 1 0 1 0 -1 0 0 3004.dat
1 19 0 -36 170 0 0 1 0 1 0 -1 0 0 3004.dat
0 STEP

1 4 30 -68 10 1 0 0 0 1 0 0 0 1 3037.dat
1 4 30 -68 90 1 0 0 0 1 0 0 0 1 3037.dat
1 4 190 -68 10 1 0 0 0 1 0 0 0 1 3037.dat
1 4 190 -68 90 1 0 0 0 1 0 0 0 1 3037.dat
1 4 10 -68 50 1 0 0 0 1 0 0 0 1 3039.dat
1 4 10 -68 130 1 0 0 0 1 0 0 0 1 3039.dat
1 4 210 -68 50 1 0 0 0 1 0 0 0 1 3039.dat
1 4 210 -68 130 1 0 0 0 1 0 0 0 1 3039.dat
0 STEP

1 14 70 -4 210 1 0 0 0 1 0 0 0 1 3020.dat
1 14 70 -12 210 1 0 0 0 1 0 0 0 1 3020.dat
0 STEP

