0 petit_chateau_solver
0 Name: petit_chateau_solver.ldr
0 Author: text2legoCAD
0 BFC CERTIFY CC-WITEMPORARY

1 72 50 -12 0 1 0 0 0 1 0 0 0 1 3009.dat
1 72 330 -12 0 1 0 0 0 1 0 0 0 1 3009.dat
1 72 0 -12 50 0 0 1 0 1 0 -1 0 0 3010.dat
1 72 100 -12 50 0 0 1 0 1 0 -1 0 0 3010.dat
1 72 280 -12 50 0 0 1 0 1 0 -1 0 0 3010.dat
1 72 380 -12 50 0 0 1 0 1 0 -1 0 0 3010.dat
1 72 130 -12 40 1 0 0 0 1 0 0 0 1 3004.dat
1 72 250 -12 40 1 0 0 0 1 0 0 0 1 3004.dat
1 72 190 -12 60 1 0 0 0 1 0 0 0 1 3008.dat
1 72 50 -12 100 1 0 0 0 1 0 0 0 1 3009.dat
1 72 330 -12 100 1 0 0 0 1 0 0 0 1 3009.dat
1 72 40 -12 230 0 0 1 0 1 0 -1 0 0 3008.dat
0 STEP

1 72 70 -12 160 1 0 0 0 1 0 0 0 1 3004.dat
1 72 180 -12 160 1 0 0 0 1 0 0 0 1 3622.dat
1 72 220 -12 230 0 0 1 0 1 0 -1 0 0 3008.dat
1 72 90 -12 190 1 0 0 0 1 0 0 0 1 3001.dat
1 72 170 -12 190 1 0 0 0 1 0 0 0 1 3001.dat
1 72 90 -12 230 1 0 0 0 1 0 0 0 1 3001.dat
1 72 170 -12 230 1 0 0 0 1 0 0 0 1 3001.dat
1 72 90 -12 270 1 0 0 0 1 0 0 0 1 3001.dat
1 72 170 -12 270 1 0 0 0 1 0 0 0 1 3001.dat
1 72 130 -12 300 1 0 0 0 1 0 0 0 1 3008.dat
0 STEP

1 72 50 -36 0 1 0 0 0 1 0 0 0 1 3010.dat
1 72 330 -36 0 1 0 0 0 1 0 0 0 1 3010.dat
1 72 50 -36 100 1 0 0 0 1 0 0 0 1 3010.dat
1 72 330 -36 100 1 0 0 0 1 0 0 0 1 3010.dat
1 72 70 -36 160 1 0 0 0 1 0 0 0 1 3004.dat
1 72 180 -36 160 1 0 0 0 1 0 0 0 1 3622.dat
1 72 130 -36 300 1 0 0 0 1 0 0 0 1 3008.dat
0 STEP

1 72 0 -36 50 0 0 1 0 1 0 -1 0 0 3009.dat
1 72 100 -36 50 0 0 1 0 1 0 -1 0 0 3009.dat
1 72 280 -36 50 0 0 1 0 1 0 -1 0 0 3009.dat
1 72 380 -36 50 0 0 1 0 1 0 -1 0 0 3009.dat
1 72 40 -36 230 0 0 1 0 1 0 -1 0 0 3008.dat
1 72 220 -36 230 0 0 1 0 1 0 -1 0 0 3008.dat
0 STEP

1 72 130 -36 40 1 0 0 0 1 0 0 0 1 3004.dat
1 72 250 -36 40 1 0 0 0 1 0 0 0 1 3004.dat
0 STEP

1 72 190 -36 60 1 0 0 0 1 0 0 0 1 3008.dat
0 STEP

1 72 50 -60 0 1 0 0 0 1 0 0 0 1 3010.dat
1 72 330 -60 0 1 0 0 0 1 0 0 0 1 3010.dat
1 72 50 -60 100 1 0 0 0 1 0 0 0 1 3010.dat
1 72 330 -60 100 1 0 0 0 1 0 0 0 1 3010.dat
1 72 70 -60 160 1 0 0 0 1 0 0 0 1 3004.dat
1 72 180 -60 160 1 0 0 0 1 0 0 0 1 3622.dat
1 72 130 -60 300 1 0 0 0 1 0 0 0 1 3008.dat
0 STEP

1 72 0 -60 50 0 0 1 0 1 0 -1 0 0 3009.dat
1 72 100 -60 50 0 0 1 0 1 0 -1 0 0 3009.dat
1 72 280 -60 50 0 0 1 0 1 0 -1 0 0 3009.dat
1 72 380 -60 50 0 0 1 0 1 0 -1 0 0 3009.dat
1 72 40 -60 230 0 0 1 0 1 0 -1 0 0 3008.dat
1 72 220 -60 230 0 0 1 0 1 0 -1 0 0 3008.dat
0 STEP

1 72 190 -60 40 1 0 0 0 1 0 0 0 1 3008.dat
0 STEP

1 72 190 -60 60 1 0 0 0 1 0 0 0 1 3008.dat
0 STEP

1 72 50 -84 0 1 0 0 0 1 0 0 0 1 3010.dat
1 72 330 -84 0 1 0 0 0 1 0 0 0 1 3010.dat
1 72 50 -84 100 1 0 0 0 1 0 0 0 1 3010.dat
1 72 330 -84 100 1 0 0 0 1 0 0 0 1 3010.dat
1 72 130 -84 160 1 0 0 0 1 0 0 0 1 3008.dat
1 72 130 -84 300 1 0 0 0 1 0 0 0 1 3008.dat
0 STEP

1 72 0 -84 50 0 0 1 0 1 0 -1 0 0 3009.dat
1 72 100 -84 50 0 0 1 0 1 0 -1 0 0 3009.dat
1 72 280 -84 50 0 0 1 0 1 0 -1 0 0 3009.dat
1 72 380 -84 50 0 0 1 0 1 0 -1 0 0 3009.dat
1 72 40 -84 230 0 0 1 0 1 0 -1 0 0 3008.dat
1 72 220 -84 230 0 0 1 0 1 0 -1 0 0 3008.dat
0 STEP

1 72 190 -84 40 1 0 0 0 1 0 0 0 1 3008.dat
0 STEP

1 72 190 -84 60 1 0 0 0 1 0 0 0 1 3008.dat
0 STEP

1 72 50 -108 0 1 0 0 0 1 0 0 0 1 3010.dat
1 72 330 -108 0 1 0 0 0 1 0 0 0 1 3010.dat
1 72 50 -108 100 1 0 0 0 1 0 0 0 1 3010.dat
1 72 330 -108 100 1 0 0 0 1 0 0 0 1 3010.dat
1 72 130 -108 160 1 0 0 0 1 0 0 0 1 3008.dat
1 72 130 -108 300 1 0 0 0 1 0 0 0 1 3008.dat
0 STEP

1 72 0 -108 50 0 0 1 0 1 0 -1 0 0 3009.dat
1 72 100 -108 50 0 0 1 0 1 0 -1 0 0 3009.dat
1 72 280 -108 50 0 0 1 0 1 0 -1 0 0 3009.dat
1 72 380 -108 50 0 0 1 0 1 0 -1 0 0 3009.dat
1 72 40 -108 230 0 0 1 0 1 0 -1 0 0 3008.dat
1 72 220 -108 230 0 0 1 0 1 0 -1 0 0 3008.dat
0 STEP

1 72 190 -108 40 1 0 0 0 1 0 0 0 1 3008.dat
0 STEP

1 72 190 -108 60 1 0 0 0 1 0 0 0 1 3008.dat
0 STEP

1 72 50 -132 0 1 0 0 0 1 0 0 0 1 3010.dat
1 72 330 -132 0 1 0 0 0 1 0 0 0 1 3010.dat
1 72 50 -132 100 1 0 0 0 1 0 0 0 1 3010.dat
1 72 330 -132 100 1 0 0 0 1 0 0 0 1 3010.dat
1 72 130 -132 160 1 0 0 0 1 0 0 0 1 3008.dat
1 72 130 -132 300 1 0 0 0 1 0 0 0 1 3008.dat
0 STEP

1 72 0 -132 50 0 0 1 0 1 0 -1 0 0 3009.dat
1 72 100 -132 50 0 0 1 0 1 0 -1 0 0 3009.dat
1 72 280 -132 50 0 0 1 0 1 0 -1 0 0 3009.dat
1 72 380 -132 50 0 0 1 0 1 0 -1 0 0 3009.dat
1 72 40 -132 230 0 0 1 0 1 0 -1 0 0 3008.dat
1 72 220 -132 230 0 0 1 0 1 0 -1 0 0 3008.dat
0 STEP

1 72 50 -156 0 1 0 0 0 1 0 0 0 1 3010.dat
1 72 330 -156 0 1 0 0 0 1 0 0 0 1 3010.dat
1 72 50 -156 100 1 0 0 0 1 0 0 0 1 3010.dat
1 72 330 -156 100 1 0 0 0 1 0 0 0 1 3010.dat
1 72 70 -156 170 1 0 0 0 1 0 0 0 1 3037.dat
1 72 50 -156 310 -1 0 0 0 1 0 0 0 -1 3037.dat
0 STEP

1 72 0 -156 50 0 0 1 0 1 0 -1 0 0 3009.dat
1 72 100 -156 50 0 0 1 0 1 0 -1 0 0 3009.dat
1 72 280 -156 50 0 0 1 0 1 0 -1 0 0 3009.dat
1 72 380 -156 50 0 0 1 0 1 0 -1 0 0 3009.dat
1 72 150 -156 170 1 0 0 0 1 0 0 0 1 3037.dat
1 72 70 -156 200 1 0 0 0 1 0 0 0 1 3010.dat
1 72 130 -156 310 -1 0 0 0 1 0 0 0 -1 3037.dat
0 STEP

1 72 210 -156 170 1 0 0 0 1 0 0 0 1 3039.dat
1 72 150 -156 200 1 0 0 0 1 0 0 0 1 3010.dat
1 72 70 -156 220 1 0 0 0 1 0 0 0 1 3010.dat
1 72 210 -156 290 -1 0 0 0 1 0 0 0 -1 3039.dat
0 STEP

1 72 210 -156 200 1 0 0 0 1 0 0 0 1 3004.dat
1 72 150 -156 220 1 0 0 0 1 0 0 0 1 3010.dat
1 72 70 -156 240 1 0 0 0 1 0 0 0 1 3010.dat
0 STEP

1 72 210 -156 220 1 0 0 0 1 0 0 0 1 3004.dat
1 72 150 -156 240 1 0 0 0 1 0 0 0 1 3010.dat
1 72 70 -156 260 1 0 0 0 1 0 0 0 1 3010.dat
0 STEP

1 72 210 -156 240 1 0 0 0 1 0 0 0 1 3004.dat
1 72 150 -156 260 1 0 0 0 1 0 0 0 1 3010.dat
0 STEP

1 72 210 -156 260 1 0 0 0 1 0 0 0 1 3004.dat
0 STEP

1 72 0 -180 50 0 0 1 0 1 0 -1 0 0 3010.dat
1 72 100 -180 50 0 0 1 0 1 0 -1 0 0 3010.dat
1 72 280 -180 50 0 0 1 0 1 0 -1 0 0 3010.dat
1 72 380 -180 50 0 0 1 0 1 0 -1 0 0 3010.dat
1 72 70 -180 210 1 0 0 0 1 0 0 0 1 3037.dat
0 STEP

1 72 50 -180 0 1 0 0 0 1 0 0 0 1 3009.dat
1 72 330 -180 0 1 0 0 0 1 0 0 0 1 3009.dat
1 72 50 -180 100 1 0 0 0 1 0 0 0 1 3009.dat
1 72 330 -180 100 1 0 0 0 1 0 0 0 1 3009.dat
1 72 150 -180 210 1 0 0 0 1 0 0 0 1 3037.dat
1 72 50 -180 270 -1 0 0 0 1 0 0 0 -1 3037.dat
0 STEP

1 72 210 -180 210 1 0 0 0 1 0 0 0 1 3039.dat
1 72 130 -180 270 -1 0 0 0 1 0 0 0 -1 3037.dat
0 STEP

1 72 210 -180 250 -1 0 0 0 1 0 0 0 -1 3039.dat
0 STEP

1 72 10 -204 10 1 0 0 0 1 0 0 0 1 3045.dat
1 72 290 -204 10 1 0 0 0 1 0 0 0 1 3045.dat
0 STEP

1 72 50 -204 10 1 0 0 0 1 0 0 0 1 3039.dat
1 72 330 -204 10 1 0 0 0 1 0 0 0 1 3039.dat
1 72 10 -204 50 0 0 1 0 1 0 -1 0 0 3039.dat
1 72 290 -204 50 0 0 1 0 1 0 -1 0 0 3039.dat
0 STEP

1 72 90 -204 10 0 0 1 0 1 0 -1 0 0 3045.dat
1 72 370 -204 10 0 0 1 0 1 0 -1 0 0 3045.dat
1 72 10 -204 90 -1 0 0 0 1 0 0 0 -1 3045.dat
1 72 290 -204 90 -1 0 0 0 1 0 0 0 -1 3045.dat
0 STEP

1 72 90 -204 50 0 0 -1 0 1 0 1 0 0 3039.dat
1 72 370 -204 50 0 0 -1 0 1 0 1 0 0 3039.dat
1 72 50 -204 90 -1 0 0 0 1 0 0 0 -1 3039.dat
1 72 330 -204 90 -1 0 0 0 1 0 0 0 -1 3039.dat
0 STEP

1 72 50 -204 50 1 0 0 0 1 0 0 0 1 3003.dat
1 72 330 -204 50 1 0 0 0 1 0 0 0 1 3003.dat
1 72 90 -204 90 0 0 -1 0 1 0 1 0 0 3045.dat
1 72 370 -204 90 0 0 -1 0 1 0 1 0 0 3045.dat
0 STEP

1 72 51.5 -240 51.5 1 0 0 0 1 0 0 0 1 98100.dat
1 72 331.5 -240 51.5 1 0 0 0 1 0 0 0 1 98100.dat
0 STEP

