0 spaceship
0 Name: spaceship.ldr
0 Author: text2legoCAD
0 BFC CERTIFY CC-WITEMPORARY

0 // vaisseau

1 71 30 -12 90 1 0 0 0 1 0 0 0 1 3001.dat
1 71 90 -12 90 1 0 0 0 1 0 0 0 1 3003.dat
1 71 30 -12 130 1 0 0 0 1 0 0 0 1 3001.dat
1 71 90 -12 130 1 0 0 0 1 0 0 0 1 3003.dat
1 71 30 -12 170 1 0 0 0 1 0 0 0 1 3001.dat
1 71 90 -12 170 1 0 0 0 1 0 0 0 1 3003.dat
1 71 30 -12 210 1 0 0 0 1 0 0 0 1 3001.dat
1 71 90 -12 210 1 0 0 0 1 0 0 0 1 3003.dat
1 71 30 -12 250 1 0 0 0 1 0 0 0 1 3001.dat
1 71 90 -12 250 1 0 0 0 1 0 0 0 1 3003.dat
1 71 30 -12 290 1 0 0 0 1 0 0 0 1 3001.dat
1 71 90 -12 290 1 0 0 0 1 0 0 0 1 3003.dat
1 71 30 -12 330 1 0 0 0 1 0 0 0 1 3001.dat
1 71 90 -12 330 1 0 0 0 1 0 0 0 1 3003.dat
1 71 30 -12 370 1 0 0 0 1 0 0 0 1 3001.dat
1 71 90 -12 370 1 0 0 0 1 0 0 0 1 3003.dat
1 71 30 -36 90 1 0 0 0 1 0 0 0 1 3001.dat
1 71 90 -36 90 1 0 0 0 1 0 0 0 1 3003.dat
1 71 30 -36 130 1 0 0 0 1 0 0 0 1 3001.dat
1 71 90 -36 130 1 0 0 0 1 0 0 0 1 3003.dat
1 71 30 -36 170 1 0 0 0 1 0 0 0 1 3001.dat
1 71 90 -36 170 1 0 0 0 1 0 0 0 1 3003.dat
1 71 30 -36 210 1 0 0 0 1 0 0 0 1 3001.dat
1 71 90 -36 210 1 0 0 0 1 0 0 0 1 3003.dat
1 71 30 -36 250 1 0 0 0 1 0 0 0 1 3001.dat
1 71 90 -36 250 1 0 0 0 1 0 0 0 1 3003.dat
1 71 30 -36 290 1 0 0 0 1 0 0 0 1 3001.dat
1 71 90 -36 290 1 0 0 0 1 0 0 0 1 3003.dat
1 71 30 -36 330 1 0 0 0 1 0 0 0 1 3001.dat
1 71 90 -36 330 1 0 0 0 1 0 0 0 1 3003.dat
1 71 30 -36 370 1 0 0 0 1 0 0 0 1 3001.dat
1 71 90 -36 370 1 0 0 0 1 0 0 0 1 3003.dat
1 71 30 -12 10 1 0 0 0 1 0 0 0 1 3001.dat
1 71 90 -12 10 1 0 0 0 1 0 0 0 1 3003.dat
1 71 30 -12 50 1 0 0 0 1 0 0 0 1 3001.dat
1 71 90 -12 50 1 0 0 0 1 0 0 0 1 3003.dat
1 71 30 -36 10 1 0 0 0 1 0 0 0 1 3037.dat
1 71 90 -36 10 1 0 0 0 1 0 0 0 1 3039.dat
1 71 30 -36 50 1 0 0 0 1 0 0 0 1 3037.dat
1 71 90 -36 50 1 0 0 0 1 0 0 0 1 3039.dat
0 STEP

1 272 -90 -12 150 1 0 0 0 1 0 0 0 1 3001.dat
1 272 -30 -12 150 1 0 0 0 1 0 0 0 1 3003.dat
1 272 -90 -12 190 1 0 0 0 1 0 0 0 1 3001.dat
1 272 -30 -12 190 1 0 0 0 1 0 0 0 1 3003.dat
1 272 -90 -12 230 1 0 0 0 1 0 0 0 1 3001.dat
1 272 -30 -12 230 1 0 0 0 1 0 0 0 1 3003.dat
1 272 150 -12 150 1 0 0 0 1 0 0 0 1 3001.dat
1 272 210 -12 150 1 0 0 0 1 0 0 0 1 3003.dat
1 272 150 -12 190 1 0 0 0 1 0 0 0 1 3001.dat
1 272 210 -12 190 1 0 0 0 1 0 0 0 1 3003.dat
1 272 150 -12 230 1 0 0 0 1 0 0 0 1 3001.dat
1 272 210 -12 230 1 0 0 0 1 0 0 0 1 3003.dat
0 STEP

1 43 50 -60 70 1 0 0 0 1 0 0 0 1 3003.dat
1 43 50 -60 110 1 0 0 0 1 0 0 0 1 3003.dat
1 43 50 -84 70 1 0 0 0 1 0 0 0 1 3039.dat
1 43 50 -84 110 0 0 1 0 1 0 -1 0 0 3039.dat
0 STEP

1 272 30 -12 410 1 0 0 0 1 0 0 0 1 3003.dat
1 272 30 -12 440 1 0 0 0 1 0 0 0 1 3004.dat
1 272 30 -36 410 1 0 0 0 1 0 0 0 1 3003.dat
1 272 30 -36 440 1 0 0 0 1 0 0 0 1 3004.dat
1 43 30 -12 460 1 0 0 0 1 0 0 0 1 3004.dat
1 43 30 -36 460 1 0 0 0 1 0 0 0 1 3004.dat
1 272 90 -12 410 1 0 0 0 1 0 0 0 1 3003.dat
1 272 90 -12 440 1 0 0 0 1 0 0 0 1 3004.dat
1 272 90 -36 410 1 0 0 0 1 0 0 0 1 3003.dat
1 272 90 -36 440 1 0 0 0 1 0 0 0 1 3004.dat
1 43 90 -12 460 1 0 0 0 1 0 0 0 1 3004.dat
1 43 90 -36 460 1 0 0 0 1 0 0 0 1 3004.dat
0 STEP

