0 tower
0 Name: tower.ldr
0 Author: text2legoCAD
0 BFC CERTIFY CC-WITEMPORARY

0 // tour grise crenelee

1 19 310 -4 310 1 0 0 0 1 0 0 0 1 3811.dat
0 STEP

1 71 70 -20 40 1 0 0 0 1 0 0 0 1 3010.dat
1 71 150 -20 40 1 0 0 0 1 0 0 0 1 3010.dat
1 71 70 -20 180 1 0 0 0 1 0 0 0 1 3010.dat
1 71 150 -20 180 1 0 0 0 1 0 0 0 1 3010.dat
1 71 40 -20 90 0 0 1 0 1 0 -1 0 0 3010.dat
1 71 40 -20 150 0 0 1 0 1 0 -1 0 0 3004.dat
1 71 180 -20 90 0 0 1 0 1 0 -1 0 0 3010.dat
1 71 180 -20 150 0 0 1 0 1 0 -1 0 0 3004.dat
1 71 70 -44 40 1 0 0 0 1 0 0 0 1 3010.dat
1 71 150 -44 40 1 0 0 0 1 0 0 0 1 3010.dat
1 71 70 -44 180 1 0 0 0 1 0 0 0 1 3010.dat
1 71 150 -44 180 1 0 0 0 1 0 0 0 1 3010.dat
1 71 40 -44 90 0 0 1 0 1 0 -1 0 0 3010.dat
1 71 40 -44 150 0 0 1 0 1 0 -1 0 0 3004.dat
1 71 180 -44 90 0 0 1 0 1 0 -1 0 0 3010.dat
1 71 180 -44 150 0 0 1 0 1 0 -1 0 0 3004.dat
1 71 70 -68 40 1 0 0 0 1 0 0 0 1 3010.dat
1 71 150 -68 40 1 0 0 0 1 0 0 0 1 3010.dat
1 71 70 -68 180 1 0 0 0 1 0 0 0 1 3010.dat
1 71 150 -68 180 1 0 0 0 1 0 0 0 1 3010.dat
1 71 40 -68 90 0 0 1 0 1 0 -1 0 0 3010.dat
1 71 40 -68 150 0 0 1 0 1 0 -1 0 0 3004.dat
1 71 180 -68 90 0 0 1 0 1 0 -1 0 0 3010.dat
1 71 180 -68 150 0 0 1 0 1 0 -1 0 0 3004.dat
1 71 70 -92 40 1 0 0 0 1 0 0 0 1 3010.dat
1 71 150 -92 40 1 0 0 0 1 0 0 0 1 3010.dat
1 71 70 -92 180 1 0 0 0 1 0 0 0 1 3010.dat
1 71 150 -92 180 1 0 0 0 1 0 0 0 1 3010.dat
1 71 40 -92 90 0 0 1 0 1 0 -1 0 0 3010.dat
1 71 40 -92 150 0 0 1 0 1 0 -1 0 0 3004.dat
1 71 180 -92 90 0 0 1 0 1 0 -1 0 0 3010.dat
1 71 180 -92 150 0 0 1 0 1 0 -1 0 0 3004.dat
1 71 70 -116 40 1 0 0 0 1 0 0 0 1 3010.dat
1 71 150 -116 40 1 0 0 0 1 0 0 0 1 3010.dat
1 71 70 -116 180 1 0 0 0 1 0 0 0 1 3010.dat
1 71 150 -116 180 1 0 0 0 1 0 0 0 1 3010.dat
1 71 40 -116 90 0 0 1 0 1 0 -1 0 0 3010.dat
1 71 40 -116 150 0 0 1 0 1 0 -1 0 0 3004.dat
1 71 180 -116 90 0 0 1 0 1 0 -1 0 0 3010.dat
1 71 180 -116 150 0 0 1 0 1 0 -1 0 0 3004.dat
1 71 70 -140 40 1 0 0 0 1 0 0 0 1 3010.dat
1 71 150 -140 40 1 0 0 0 1 0 0 0 1 3010.dat
1 71 70 -140 180 1 0 0 0 1 0 0 0 1 3010.dat
1 71 150 -140 180 1 0 0 0 1 0 0 0 1 3010.dat
1 71 40 -140 90 0 0 1 0 1 0 -1 0 0 3010.dat
1 71 40 -140 150 0 0 1 0 1 0 -1 0 0 3004.dat
1 71 180 -140 90 0 0 1 0 1 0 -1 0 0 3010.dat
1 71 180 -140 150 0 0 1 0 1 0 -1 0 0 3004.dat
1 71 70 -164 40 1 0 0 0 1 0 0 0 1 3010.dat
1 71 150 -164 40 1 0 0 0 1 0 0 0 1 3010.dat
1 71 70 -164 180 1 0 0 0 1 0 0 0 1 3010.dat
1 71 150 -164 180 1 0 0 0 1 0 0 0 1 3010.dat
1 71 40 -164 90 0 0 1 0 1 0 -1 0 0 3010.dat
1 71 40 -164 150 0 0 1 0 1 0 -1 0 0 3004.dat
1 71 180 -164 90 0 0 1 0 1 0 -1 0 0 3010.dat
1 71 180 -164 150 0 0 1 0 1 0 -1 0 0 3004.dat
1 71 70 -188 40 1 0 0 0 1 0 0 0 1 3010.dat
1 71 150 -188 40 1 0 0 0 1 0 0 0 1 3010.dat
1 71 70 -188 180 1 0 0 0 1 0 0 0 1 3010.dat
1 71 150 -188 180 1 0 0 0 1 0 0 0 1 3010.dat
1 71 40 -188 90 0 0 1 0 1 0 -1 0 0 3010.dat
1 71 40 -188 150 0 0 1 0 1 0 -1 0 0 3004.dat
1 71 180 -188 90 0 0 1 0 1 0 -1 0 0 3010.dat
1 71 180 -188 150 0 0 1 0 1 0 -1 0 0 3004.dat
0 STEP

1 4 40 -212 40 1 0 0 0 1 0 0 0 1 3005.dat
1 4 40 -212 180 1 0 0 0 1 0 0 0 1 3005.dat
1 4 80 -212 40 1 0 0 0 1 0 0 0 1 3005.dat
1 4 80 -212 180 1 0 0 0 1 0 0 0 1 3005.dat
1 4 120 -212 40 1 0 0 0 1 0 0 0 1 3005.dat
1 4 120 -212 180 1 0 0 0 1 0 0 0 1 3005.dat
1 4 160 -212 40 1 0 0 0 1 0 0 0 1 3005.dat
1 4 160 -212 180 1 0 0 0 1 0 0 0 1 3005.dat
1 4 40 -212 60 1 0 0 0 1 0 0 0 1 3005.dat
1 4 180 -212 60 1 0 0 0 1 0 0 0 1 3005.dat
1 4 40 -212 100 1 0 0 0 1 0 0 0 1 3005.dat
1 4 180 -212 100 1 0 0 0 1 0 0 0 1 3005.dat
1 4 40 -212 140 1 0 0 0 1 0 0 0 1 3005.dat
1 4 180 -212 140 1 0 0 0 1 0 0 0 1 3005.dat
1 4 70 -212 70 1 0 0 0 1 0 0 0 1 3045.dat
1 4 70 -212 110 0 0 1 0 1 0 -1 0 0 3039.dat
1 4 70 -212 150 -1 0 0 0 1 0 0 0 -1 3045.dat
1 4 110 -212 70 1 0 0 0 1 0 0 0 1 3039.dat
1 4 110 -212 150 -1 0 0 0 1 0 0 0 -1 3039.dat
1 4 150 -212 70 0 0 1 0 1 0 -1 0 0 3045.dat
1 4 150 -212 110 0 0 -1 0 1 0 1 0 0 3039.dat
1 4 150 -212 150 0 0 -1 0 1 0 1 0 0 3045.dat
1 4 110 -212 110 1 0 0 0 1 0 0 0 1 3003.dat
1 4 111.5 -248 111.5 1 0 0 0 1 0 0 0 1 98100.dat
0 STEP

