0 Voilier
0 Name: Voilier.ldr
0 Author: text2legoCAD
0 BFC CERTIFY CC-WITEMPORARY

1 red 160 -12 230 0 0 1 0 1 0 -1 0 0 3008.dat
1 red 250 -12 160 1 0 0 0 1 0 0 0 1 3008.dat
1 red 390 -12 160 1 0 0 0 1 0 0 0 1 3009.dat
1 red 460 -12 230 0 0 1 0 1 0 -1 0 0 3008.dat
1 red 190 -12 210 0 0 1 0 1 0 -1 0 0 3001.dat
1 red 230 -12 210 0 0 1 0 1 0 -1 0 0 3001.dat
1 red 270 -12 190 1 0 0 0 1 0 0 0 1 3003.dat
1 red 310 -12 210 0 0 1 0 1 0 -1 0 0 3001.dat
1 red 350 -12 210 0 0 1 0 1 0 -1 0 0 3001.dat
1 red 410 -12 190 1 0 0 0 1 0 0 0 1 3001.dat
1 red 270 -12 250 0 0 1 0 1 0 -1 0 0 3001.dat
1 red 410 -12 230 1 0 0 0 1 0 0 0 1 3001.dat
0 STEP

1 red 210 -12 270 1 0 0 0 1 0 0 0 1 3001.dat
1 red 330 -12 270 1 0 0 0 1 0 0 0 1 3001.dat
1 red 410 -12 270 1 0 0 0 1 0 0 0 1 3001.dat
1 red 230 -12 300 1 0 0 0 1 0 0 0 1 3009.dat
1 red 370 -12 300 1 0 0 0 1 0 0 0 1 3008.dat
1 brown 180 -12 320 1 0 0 0 1 0 0 0 1 3622.dat
1 brown 220 -12 340 0 0 1 0 1 0 -1 0 0 3622.dat
1 white 310 -12 320 1 0 0 0 1 0 0 0 1 3008.dat
1 brown 160 -12 360 0 0 1 0 1 0 -1 0 0 3622.dat
1 brown 200 -12 380 1 0 0 0 1 0 0 0 1 3622.dat
0 STEP

1 red 230 -36 160 1 0 0 0 1 0 0 0 1 3009.dat
1 red 230 -36 300 1 0 0 0 1 0 0 0 1 3009.dat
1 brown 200 -36 380 1 0 0 0 1 0 0 0 1 3622.dat
0 STEP

1 red 160 -36 230 0 0 1 0 1 0 -1 0 0 3008.dat
1 red 370 -36 160 1 0 0 0 1 0 0 0 1 3008.dat
1 red 370 -36 300 1 0 0 0 1 0 0 0 1 3008.dat
0 STEP

1 red 460 -36 230 0 0 1 0 1 0 -1 0 0 3008.dat
1 brown 180 -36 320 1 0 0 0 1 0 0 0 1 3622.dat
0 STEP

1 brown 220 -36 340 0 0 1 0 1 0 -1 0 0 3622.dat
1 brown 160 -36 360 0 0 1 0 1 0 -1 0 0 3622.dat
0 STEP

1 white 310 -36 320 1 0 0 0 1 0 0 0 1 3008.dat
0 STEP

1 red 230 -60 160 1 0 0 0 1 0 0 0 1 3009.dat
1 red 230 -60 300 1 0 0 0 1 0 0 0 1 3009.dat
1 brown 180 -60 380 1 0 0 0 1 0 0 0 1 3622.dat
0 STEP

1 red 160 -60 230 0 0 1 0 1 0 -1 0 0 3008.dat
1 red 370 -60 160 1 0 0 0 1 0 0 0 1 3008.dat
1 red 370 -60 300 1 0 0 0 1 0 0 0 1 3008.dat
1 brown 200 -60 320 1 0 0 0 1 0 0 0 1 3622.dat
0 STEP

1 red 460 -60 230 0 0 1 0 1 0 -1 0 0 3008.dat
1 brown 160 -60 340 0 0 1 0 1 0 -1 0 0 3622.dat
1 white 310 -60 320 1 0 0 0 1 0 0 0 1 3008.dat
1 brown 220 -60 360 0 0 1 0 1 0 -1 0 0 3622.dat
0 STEP

1 brown 180 -84 320 1 0 0 0 1 0 0 0 1 3622.dat
1 brown 200 -84 380 1 0 0 0 1 0 0 0 1 3622.dat
0 STEP

1 brown 220 -84 340 0 0 1 0 1 0 -1 0 0 3622.dat
1 brown 160 -84 360 0 0 1 0 1 0 -1 0 0 3622.dat
0 STEP

1 white 310 -84 320 1 0 0 0 1 0 0 0 1 3008.dat
0 STEP

1 brown 180 -108 320 1 0 0 0 1 0 0 0 1 3622.dat
1 brown 200 -108 380 1 0 0 0 1 0 0 0 1 3622.dat
0 STEP

1 brown 220 -108 340 0 0 1 0 1 0 -1 0 0 3622.dat
1 brown 160 -108 360 0 0 1 0 1 0 -1 0 0 3622.dat
0 STEP

1 white 310 -108 320 1 0 0 0 1 0 0 0 1 3008.dat
0 STEP

1 brown 180 -132 320 1 0 0 0 1 0 0 0 1 3622.dat
1 brown 200 -132 380 1 0 0 0 1 0 0 0 1 3622.dat
0 STEP

1 brown 220 -132 340 0 0 1 0 1 0 -1 0 0 3622.dat
1 brown 160 -132 360 0 0 1 0 1 0 -1 0 0 3622.dat
0 STEP

1 white 310 -132 320 1 0 0 0 1 0 0 0 1 3008.dat
0 STEP

1 brown 180 -156 320 1 0 0 0 1 0 0 0 1 3622.dat
1 brown 200 -156 380 1 0 0 0 1 0 0 0 1 3622.dat
0 STEP

1 brown 220 -156 340 0 0 1 0 1 0 -1 0 0 3622.dat
1 brown 160 -156 360 0 0 1 0 1 0 -1 0 0 3622.dat
0 STEP

1 white 310 -156 320 1 0 0 0 1 0 0 0 1 3008.dat
0 STEP

1 brown 200 -180 320 1 0 0 0 1 0 0 0 1 3622.dat
1 brown 180 -180 380 1 0 0 0 1 0 0 0 1 3622.dat
0 STEP

1 brown 160 -180 340 0 0 1 0 1 0 -1 0 0 3622.dat
1 white 310 -180 320 1 0 0 0 1 0 0 0 1 3008.dat
1 brown 220 -180 360 0 0 1 0 1 0 -1 0 0 3622.dat
0 STEP

1 brown 200 -204 320 1 0 0 0 1 0 0 0 1 3622.dat
1 brown 180 -204 380 1 0 0 0 1 0 0 0 1 3622.dat
0 STEP

1 brown 160 -204 340 0 0 1 0 1 0 -1 0 0 3622.dat
1 white 310 -204 320 1 0 0 0 1 0 0 0 1 3008.dat
1 brown 220 -204 360 0 0 1 0 1 0 -1 0 0 3622.dat
0 STEP

1 brown 180 -228 320 1 0 0 0 1 0 0 0 1 3622.dat
1 brown 200 -228 380 1 0 0 0 1 0 0 0 1 3622.dat
0 STEP

1 brown 220 -228 340 0 0 1 0 1 0 -1 0 0 3622.dat
1 brown 160 -228 360 0 0 1 0 1 0 -1 0 0 3622.dat
0 STEP

1 brown 180 -252 320 1 0 0 0 1 0 0 0 1 3622.dat
1 brown 200 -252 380 1 0 0 0 1 0 0 0 1 3622.dat
0 STEP

1 brown 220 -252 340 0 0 1 0 1 0 -1 0 0 3622.dat
1 brown 160 -252 360 0 0 1 0 1 0 -1 0 0 3622.dat
0 STEP

1 brown 180 -276 320 1 0 0 0 1 0 0 0 1 3622.dat
1 brown 200 -276 380 1 0 0 0 1 0 0 0 1 3622.dat
0 STEP

1 brown 220 -276 340 0 0 1 0 1 0 -1 0 0 3622.dat
1 brown 160 -276 360 0 0 1 0 1 0 -1 0 0 3622.dat
0 STEP

