0 Voilier LEGO
0 Name: Voilier LEGO.ldr
0 Author: text2legoCAD
0 BFC CERTIFY CC-WITEMPORARY

1 4 40 -12 230 0 0 1 0 1 0 -1 0 0 3008.dat
1 4 70 -12 160 1 0 0 0 1 0 0 0 1 3004.dat
1 4 170 -12 160 1 0 0 0 1 0 0 0 1 3008.dat
1 4 330 -12 160 1 0 0 0 1 0 0 0 1 3008.dat
1 4 420 -12 230 0 0 1 0 1 0 -1 0 0 3008.dat
1 4 90 -12 190 1 0 0 0 1 0 0 0 1 3001.dat
1 4 170 -12 190 1 0 0 0 1 0 0 0 1 3001.dat
1 4 250 -12 190 1 0 0 0 1 0 0 0 1 3001.dat
1 4 310 -12 210 0 0 1 0 1 0 -1 0 0 3001.dat
1 4 350 -12 210 0 0 1 0 1 0 -1 0 0 3001.dat
1 4 390 -12 210 0 0 1 0 1 0 -1 0 0 3001.dat
1 4 90 -12 230 1 0 0 0 1 0 0 0 1 3001.dat
0 STEP

1 4 150 -12 250 0 0 1 0 1 0 -1 0 0 3001.dat
1 4 210 -12 230 1 0 0 0 1 0 0 0 1 3001.dat
1 4 270 -12 250 0 0 1 0 1 0 -1 0 0 3001.dat
1 4 90 -12 270 1 0 0 0 1 0 0 0 1 3001.dat
1 4 210 -12 270 1 0 0 0 1 0 0 0 1 3001.dat
1 4 320 -12 270 1 0 0 0 1 0 0 0 1 3002.dat
1 4 380 -12 270 1 0 0 0 1 0 0 0 1 3002.dat
1 4 70 -12 300 1 0 0 0 1 0 0 0 1 3004.dat
1 4 170 -12 300 1 0 0 0 1 0 0 0 1 3008.dat
1 4 330 -12 300 1 0 0 0 1 0 0 0 1 3008.dat
1 14 240 -12 320 1 0 0 0 1 0 0 0 1 3622.dat
1 14 280 -12 340 0 0 1 0 1 0 -1 0 0 3622.dat
0 STEP

1 15 300 -12 370 0 0 1 0 1 0 -1 0 0 3009.dat
1 14 220 -12 360 0 0 1 0 1 0 -1 0 0 3622.dat
1 14 260 -12 380 1 0 0 0 1 0 0 0 1 3622.dat
0 STEP

1 4 70 -36 160 1 0 0 0 1 0 0 0 1 3004.dat
1 4 130 -36 300 1 0 0 0 1 0 0 0 1 3008.dat
1 4 390 -36 300 1 0 0 0 1 0 0 0 1 3004.dat
1 14 240 -36 380 1 0 0 0 1 0 0 0 1 3622.dat
0 STEP

1 4 40 -36 230 0 0 1 0 1 0 -1 0 0 3008.dat
1 4 170 -36 160 1 0 0 0 1 0 0 0 1 3008.dat
1 4 290 -36 300 1 0 0 0 1 0 0 0 1 3008.dat
0 STEP

1 4 330 -36 160 1 0 0 0 1 0 0 0 1 3008.dat
1 14 260 -36 320 1 0 0 0 1 0 0 0 1 3622.dat
0 STEP

1 4 420 -36 230 0 0 1 0 1 0 -1 0 0 3008.dat
1 14 220 -36 340 0 0 1 0 1 0 -1 0 0 3622.dat
1 14 280 -36 360 0 0 1 0 1 0 -1 0 0 3622.dat
0 STEP

1 15 300 -36 370 0 0 1 0 1 0 -1 0 0 3009.dat
0 STEP

1 4 230 -60 160 1 0 0 0 1 0 0 0 1 3004.dat
1 4 70 -60 300 1 0 0 0 1 0 0 0 1 3004.dat
1 14 240 -60 380 1 0 0 0 1 0 0 0 1 3622.dat
0 STEP

1 4 130 -60 160 1 0 0 0 1 0 0 0 1 3008.dat
1 4 330 -60 160 1 0 0 0 1 0 0 0 1 3008.dat
1 4 170 -60 300 1 0 0 0 1 0 0 0 1 3008.dat
0 STEP

1 4 40 -60 230 0 0 1 0 1 0 -1 0 0 3008.dat
1 4 330 -60 300 1 0 0 0 1 0 0 0 1 3008.dat
0 STEP

1 4 420 -60 230 0 0 1 0 1 0 -1 0 0 3008.dat
1 14 260 -60 320 1 0 0 0 1 0 0 0 1 3622.dat
0 STEP

1 14 220 -60 340 0 0 1 0 1 0 -1 0 0 3622.dat
1 14 280 -60 360 0 0 1 0 1 0 -1 0 0 3622.dat
0 STEP

1 15 300 -60 370 0 0 1 0 1 0 -1 0 0 3009.dat
0 STEP

1 14 240 -84 320 1 0 0 0 1 0 0 0 1 3622.dat
1 14 260 -84 380 1 0 0 0 1 0 0 0 1 3622.dat
0 STEP

1 14 280 -84 340 0 0 1 0 1 0 -1 0 0 3622.dat
1 14 220 -84 360 0 0 1 0 1 0 -1 0 0 3622.dat
0 STEP

1 15 300 -84 370 0 0 1 0 1 0 -1 0 0 3009.dat
0 STEP

1 14 260 -108 320 1 0 0 0 1 0 0 0 1 3622.dat
1 14 240 -108 380 1 0 0 0 1 0 0 0 1 3622.dat
0 STEP

1 14 220 -108 340 0 0 1 0 1 0 -1 0 0 3622.dat
1 14 280 -108 360 0 0 1 0 1 0 -1 0 0 3622.dat
0 STEP

1 15 300 -108 370 0 0 1 0 1 0 -1 0 0 3009.dat
0 STEP

1 14 240 -132 320 1 0 0 0 1 0 0 0 1 3622.dat
1 14 260 -132 380 1 0 0 0 1 0 0 0 1 3622.dat
0 STEP

1 14 280 -132 340 0 0 1 0 1 0 -1 0 0 3622.dat
1 14 220 -132 360 0 0 1 0 1 0 -1 0 0 3622.dat
0 STEP

1 15 300 -132 370 0 0 1 0 1 0 -1 0 0 3009.dat
0 STEP

1 14 240 -156 320 1 0 0 0 1 0 0 0 1 3622.dat
1 14 260 -156 380 1 0 0 0 1 0 0 0 1 3622.dat
0 STEP

1 14 280 -156 340 0 0 1 0 1 0 -1 0 0 3622.dat
1 14 220 -156 360 0 0 1 0 1 0 -1 0 0 3622.dat
0 STEP

1 15 300 -156 370 0 0 1 0 1 0 -1 0 0 3009.dat
0 STEP

1 14 260 -180 320 1 0 0 0 1 0 0 0 1 3622.dat
1 14 240 -180 380 1 0 0 0 1 0 0 0 1 3622.dat
0 STEP

1 14 220 -180 340 0 0 1 0 1 0 -1 0 0 3622.dat
1 14 280 -180 360 0 0 1 0 1 0 -1 0 0 3622.dat
0 STEP

1 15 300 -180 370 0 0 1 0 1 0 -1 0 0 3009.dat
0 STEP

1 14 240 -204 320 1 0 0 0 1 0 0 0 1 3622.dat
1 14 260 -204 380 1 0 0 0 1 0 0 0 1 3622.dat
0 STEP

1 14 280 -204 340 0 0 1 0 1 0 -1 0 0 3622.dat
1 14 220 -204 360 0 0 1 0 1 0 -1 0 0 3622.dat
0 STEP

1 15 300 -204 370 0 0 1 0 1 0 -1 0 0 3009.dat
0 STEP

1 14 240 -228 320 1 0 0 0 1 0 0 0 1 3622.dat
1 14 260 -228 380 1 0 0 0 1 0 0 0 1 3622.dat
0 STEP

1 14 280 -228 340 0 0 1 0 1 0 -1 0 0 3622.dat
1 14 220 -228 360 0 0 1 0 1 0 -1 0 0 3622.dat
0 STEP

1 15 300 -228 370 0 0 1 0 1 0 -1 0 0 3009.dat
0 STEP

1 14 260 -252 320 1 0 0 0 1 0 0 0 1 3622.dat
1 14 240 -252 380 1 0 0 0 1 0 0 0 1 3622.dat
0 STEP

1 14 220 -252 340 0 0 1 0 1 0 -1 0 0 3622.dat
1 14 280 -252 360 0 0 1 0 1 0 -1 0 0 3622.dat
0 STEP

1 14 260 -276 320 1 0 0 0 1 0 0 0 1 3622.dat
1 14 240 -276 380 1 0 0 0 1 0 0 0 1 3622.dat
0 STEP

1 14 220 -276 340 0 0 1 0 1 0 -1 0 0 3622.dat
1 14 280 -276 360 0 0 1 0 1 0 -1 0 0 3622.dat
0 STEP

