0 voiture_llm
0 Name: voiture_llm.ldr
0 Author: text2legoCAD
0 BFC CERTIFY CC-WITEMPORARY

1 4 50 -12 130 0 0 1 0 1 0 -1 0 0 3001.dat
1 4 90 -12 130 0 0 1 0 1 0 -1 0 0 3001.dat
1 4 120 -12 150 0 0 1 0 1 0 -1 0 0 3009.dat
1 4 190 -12 100 1 0 0 0 1 0 0 0 1 3009.dat
1 4 260 -12 150 0 0 1 0 1 0 -1 0 0 3009.dat
1 4 330 -12 100 1 0 0 0 1 0 0 0 1 3009.dat
1 4 150 -12 150 0 0 1 0 1 0 -1 0 0 3001.dat
1 4 210 -12 130 1 0 0 0 1 0 0 0 1 3001.dat
1 4 310 -12 130 1 0 0 0 1 0 0 0 1 3001.dat
1 4 370 -12 150 0 0 1 0 1 0 -1 0 0 3001.dat
1 4 210 -12 170 1 0 0 0 1 0 0 0 1 3001.dat
1 4 310 -12 170 1 0 0 0 1 0 0 0 1 3001.dat
0 STEP

1 4 70 -12 190 1 0 0 0 1 0 0 0 1 3001.dat
1 4 190 -12 200 1 0 0 0 1 0 0 0 1 3009.dat
1 4 330 -12 200 1 0 0 0 1 0 0 0 1 3009.dat
0 STEP

1 4 140 -36 100 1 0 0 0 1 0 0 0 1 3005.dat
1 4 200 -36 100 1 0 0 0 1 0 0 0 1 3005.dat
1 4 190 -36 200 1 0 0 0 1 0 0 0 1 3009.dat
0 STEP

1 4 120 -36 150 0 0 1 0 1 0 -1 0 0 3009.dat
1 4 260 -36 150 0 0 1 0 1 0 -1 0 0 3009.dat
0 STEP

1 4 170 -44 100 1 0 0 0 1 0 0 0 1 3023.dat
1 4 230 -44 100 1 0 0 0 1 0 0 0 1 3023.dat
0 STEP

1 4 150 -60 110 1 0 0 0 1 0 0 0 1 3037.dat
1 4 130 -60 210 -1 0 0 0 1 0 0 0 -1 3037.dat
0 STEP

1 4 230 -60 110 1 0 0 0 1 0 0 0 1 3037.dat
1 4 150 -60 140 1 0 0 0 1 0 0 0 1 3010.dat
1 4 210 -60 210 -1 0 0 0 1 0 0 0 -1 3037.dat
0 STEP

1 4 230 -60 140 1 0 0 0 1 0 0 0 1 3010.dat
1 4 150 -60 160 1 0 0 0 1 0 0 0 1 3010.dat
0 STEP

1 4 230 -60 160 1 0 0 0 1 0 0 0 1 3010.dat
0 STEP

1 4 150 -84 150 1 0 0 0 1 0 0 0 1 3037.dat
0 STEP

1 4 230 -84 150 1 0 0 0 1 0 0 0 1 3037.dat
0 STEP

